{"glyphs":{"":{"ha":1215,"x_min":0,"x_max":1218,"o":"m 1183 781 q 1206 791 1196 781 q 1215 814 1215 800 l 1215 922 q 1206 945 1215 936 q 1183 955 1196 955 l 1128 955 l 1128 1085 q 1090 1177 1128 1139 q 998 1215 1053 1215 l 130 1215 q 38 1177 76 1215 q 0 1085 0 1139 l 0 -43 q 38 -136 0 -98 q 130 -174 76 -174 l 998 -174 q 1090 -136 1053 -174 q 1128 -43 1128 -98 l 1128 87 l 1183 87 q 1206 96 1196 87 q 1215 119 1215 106 l 1215 228 q 1206 251 1215 241 q 1183 260 1196 260 l 1128 260 l 1128 434 l 1183 434 q 1206 444 1196 434 q 1215 467 1215 453 l 1215 575 q 1206 598 1215 589 q 1183 608 1196 608 l 1128 608 l 1128 781 l 1183 781 m 982 -43 l 146 -43 q 136 -38 141 -43 q 130 -27 130 -33 l 130 1069 q 136 1080 130 1074 q 146 1085 141 1085 l 982 1085 q 993 1080 987 1085 q 998 1069 998 1074 l 998 -27 q 993 -38 998 -33 q 982 -43 987 -43 m 347 651 q 411 804 347 741 q 564 868 475 868 q 718 804 654 868 q 781 651 781 741 q 718 498 781 562 q 564 434 654 434 q 411 498 475 434 q 347 651 347 562 m 911 290 l 911 239 q 892 193 911 212 q 846 174 873 174 l 282 174 q 236 193 255 174 q 217 239 217 212 l 217 290 q 244 369 217 334 q 315 415 271 404 l 412 439 q 556 391 475 393 q 716 439 643 388 l 814 415 q 884 369 857 404 q 911 290 911 334 z "},"":{"ha":1389,"x_min":0,"x_max":1389,"o":"m 1259 1042 l 130 1042 q 38 1004 76 1042 q 0 911 0 966 l 0 130 q 38 38 0 76 q 130 0 76 0 l 1259 0 q 1351 38 1313 0 q 1389 130 1389 76 l 1389 911 q 1351 1004 1389 966 q 1259 1042 1313 1042 m 1242 130 l 146 130 q 136 136 141 130 q 130 146 130 141 l 130 895 q 136 906 130 901 q 146 911 141 911 l 1242 911 q 1253 906 1248 911 q 1259 895 1259 901 l 1259 146 q 1253 136 1259 141 q 1242 130 1248 130 m 1096 608 l 814 608 q 791 617 800 608 q 781 640 781 627 l 781 684 q 791 707 781 697 q 814 716 800 716 l 1096 716 q 1119 707 1109 716 q 1128 684 1128 697 l 1128 640 q 1119 617 1128 627 q 1096 608 1109 608 m 1096 412 l 814 412 q 791 422 800 412 q 781 445 781 431 l 781 488 q 791 511 781 502 q 814 521 800 521 l 1096 521 q 1119 511 1109 521 q 1128 488 1128 502 l 1128 445 q 1119 422 1128 431 q 1096 412 1109 412 m 477 781 q 593 734 545 781 q 640 618 640 686 q 593 503 640 551 q 477 456 545 456 q 362 503 410 456 q 315 618 315 551 q 362 734 315 686 q 477 781 410 781 m 665 442 l 591 461 q 472 423 537 420 q 363 461 412 426 l 290 442 q 237 407 258 434 q 217 347 217 380 l 217 309 q 232 275 217 290 q 266 260 247 260 l 689 260 q 723 275 708 260 q 738 309 738 290 l 738 347 q 718 407 738 380 q 665 442 697 434 z "},"":{"ha":1389,"x_min":0,"x_max":1367,"o":"m 694 1194 q 358 1103 513 1194 q 113 857 203 1012 q 22 521 22 703 q 113 184 22 339 q 358 -61 203 30 q 694 -152 513 -152 q 1031 -61 876 -152 q 1276 184 1185 30 q 1367 521 1367 339 q 1276 857 1367 703 q 1031 1103 1185 1012 q 694 1194 876 1194 m 694 -22 q 423 52 548 -22 q 225 250 298 125 q 152 521 152 374 q 225 792 152 667 q 423 990 298 917 q 694 1063 548 1063 q 966 990 841 1063 q 1164 792 1090 917 q 1237 521 1237 667 q 1164 250 1237 374 q 966 52 1090 125 q 694 -22 841 -22 m 608 836 l 608 521 l 426 521 q 396 500 404 521 q 404 467 388 480 l 673 198 q 694 187 681 187 q 719 198 708 187 l 987 467 q 993 500 1001 480 q 963 521 985 521 l 781 521 l 781 836 q 772 859 781 849 q 749 868 762 868 l 640 868 q 617 859 627 868 q 608 836 608 849 z "},"":{"ha":1389,"x_min":0,"x_max":1367,"o":"m 22 521 q 113 184 22 339 q 358 -61 203 30 q 694 -152 513 -152 q 1031 -61 876 -152 q 1276 184 1185 30 q 1367 521 1367 339 q 1276 857 1367 703 q 1031 1103 1185 1012 q 694 1194 876 1194 q 358 1103 513 1194 q 113 857 203 1012 q 22 521 22 703 m 1237 521 q 1164 250 1237 374 q 966 52 1090 125 q 694 -22 841 -22 q 423 52 548 -22 q 225 250 298 125 q 152 521 152 374 q 225 792 152 667 q 423 990 298 917 q 694 1063 548 1063 q 966 990 841 1063 q 1164 792 1090 917 q 1237 521 1237 667 m 1042 575 l 1042 467 q 1032 444 1042 453 q 1009 434 1023 434 l 694 434 l 694 252 q 674 222 694 231 q 640 231 654 214 l 372 499 q 361 521 361 507 q 372 545 361 534 l 640 814 q 674 819 654 827 q 694 789 694 811 l 694 608 l 1009 608 q 1032 598 1023 608 q 1042 575 1042 589 z "},"":{"ha":1389,"x_min":0,"x_max":1367,"o":"m 1367 521 q 1276 857 1367 703 q 1031 1103 1185 1012 q 694 1194 876 1194 q 358 1103 513 1194 q 113 857 203 1012 q 22 521 22 703 q 113 184 22 339 q 358 -61 203 30 q 694 -152 513 -152 q 1031 -61 876 -152 q 1276 184 1185 30 q 1367 521 1367 339 m 152 521 q 225 792 152 667 q 423 990 298 917 q 694 1063 548 1063 q 966 990 841 1063 q 1164 792 1090 917 q 1237 521 1237 667 q 1164 250 1237 374 q 966 52 1090 125 q 694 -22 841 -22 q 423 52 548 -22 q 225 250 298 125 q 152 521 152 374 m 347 467 l 347 575 q 357 598 347 589 q 380 608 366 608 l 694 608 l 694 789 q 715 819 694 811 q 749 814 735 827 l 1020 545 q 1028 521 1028 534 q 1020 496 1028 507 l 751 231 q 715 222 735 214 q 694 252 694 231 l 694 434 l 380 434 q 357 444 366 434 q 347 467 347 453 z "},"":{"ha":1389,"x_min":0,"x_max":1367,"o":"m 694 -152 q 1031 -61 876 -152 q 1276 184 1185 30 q 1367 521 1367 339 q 1276 857 1367 703 q 1031 1103 1185 1012 q 694 1194 876 1194 q 358 1103 513 1194 q 113 857 203 1012 q 22 521 22 703 q 113 184 22 339 q 358 -61 203 30 q 694 -152 513 -152 m 694 1063 q 966 990 841 1063 q 1164 792 1090 917 q 1237 521 1237 667 q 1164 250 1237 374 q 966 52 1090 125 q 694 -22 841 -22 q 423 52 548 -22 q 225 250 298 125 q 152 521 152 374 q 225 792 152 667 q 423 990 298 917 q 694 1063 548 1063 m 749 174 l 640 174 q 617 183 627 174 q 608 206 608 193 l 608 521 l 426 521 q 396 541 404 521 q 404 575 388 562 l 673 846 q 694 854 681 854 q 719 846 708 854 l 987 578 q 993 541 1001 562 q 963 521 985 521 l 781 521 l 781 206 q 772 183 781 193 q 749 174 762 174 z "},"":{"ha":1563,"x_min":-3,"x_max":1565,"o":"m 355 130 q 308 161 320 130 q 320 217 296 193 q 410 334 382 282 q 456 548 448 415 l 328 659 l 328 632 q 315 461 328 529 q 279 369 304 407 q 236 317 266 347 q 174 179 174 255 q 227 53 174 106 q 355 0 279 0 l 608 0 q 658 -123 608 -73 q 781 -174 708 -174 q 905 -123 854 -174 q 955 0 955 -73 l 1077 0 l 928 130 l 355 130 m 781 -65 q 735 -46 754 -65 q 716 0 716 -27 l 846 0 q 827 -46 846 -27 q 781 -65 808 -65 m 1552 -68 l 1367 95 q 1386 208 1394 146 q 1326 317 1378 269 q 1283 369 1297 347 q 1248 461 1259 407 q 1234 632 1234 529 q 1184 840 1234 743 q 1047 1000 1134 936 q 852 1080 960 1063 q 868 1128 868 1101 q 842 1190 868 1164 q 781 1215 817 1215 q 720 1190 746 1215 q 694 1128 694 1164 q 711 1080 694 1101 q 555 1024 627 1066 q 429 917 483 982 l 98 1207 q 76 1215 90 1215 q 52 1204 62 1215 l 8 1156 q 0 1131 0 1145 q 11 1109 0 1118 l 1465 -165 q 1487 -174 1473 -174 q 1511 -163 1500 -174 l 1554 -114 q 1563 -90 1563 -103 q 1552 -68 1563 -76 m 781 955 q 943 911 868 955 q 1061 793 1017 868 q 1104 632 1104 719 q 1123 423 1104 507 q 1172 301 1139 353 q 1242 217 1196 266 q 1259 190 1256 206 l 526 830 q 639 922 572 890 q 781 955 705 955 z "},"":{"ha":1215,"x_min":-3,"x_max":1218,"o":"m 1153 317 q 1109 369 1123 347 q 1074 461 1085 407 q 1061 632 1061 529 q 1010 840 1061 743 q 873 1000 960 936 q 678 1080 787 1063 q 694 1128 694 1101 q 669 1190 694 1164 q 608 1215 643 1215 q 547 1190 572 1215 q 521 1128 521 1164 q 537 1080 521 1101 q 342 1000 429 1063 q 205 840 255 936 q 155 632 155 743 q 141 461 155 529 q 106 369 130 407 q 62 317 92 347 q 0 179 0 255 q 53 53 0 106 q 182 0 106 0 l 434 0 q 484 -123 434 -73 q 608 -174 534 -174 q 731 -123 681 -174 q 781 0 781 -73 l 1034 0 q 1162 53 1109 0 q 1215 179 1215 106 q 1153 317 1215 255 m 608 -65 q 562 -46 581 -65 q 543 0 543 -27 l 673 0 q 654 -46 673 -27 q 608 -65 635 -65 m 1034 130 l 182 130 q 134 161 146 130 q 146 217 122 193 q 217 301 193 266 q 266 426 250 353 q 285 632 285 507 q 328 793 285 719 q 446 911 372 868 q 608 955 521 955 q 769 911 694 955 q 887 793 844 868 q 930 632 930 719 q 949 423 930 507 q 998 301 966 353 q 1069 217 1023 266 q 1081 161 1093 193 q 1034 130 1069 130 z "},"":{"ha":1042,"x_min":0,"x_max":1042,"o":"m 911 1215 l 130 1215 q 38 1177 76 1215 q 0 1085 0 1139 l 0 -174 l 521 130 l 1042 -174 l 1042 1085 q 1004 1177 1042 1139 q 911 1215 966 1215 m 911 54 l 521 282 l 130 54 l 130 1069 q 136 1080 130 1074 q 146 1085 141 1085 l 895 1085 q 906 1080 901 1085 q 911 1069 911 1074 l 911 54 z "},"":{"ha":1215,"x_min":0,"x_max":1215,"o":"m 347 814 l 347 922 q 357 945 347 936 q 380 955 366 955 l 488 955 q 511 945 502 955 q 521 922 521 936 l 521 814 q 511 791 521 800 q 488 781 502 781 l 380 781 q 357 791 366 781 q 347 814 347 800 m 727 781 l 836 781 q 859 791 849 781 q 868 814 868 800 l 868 922 q 859 945 868 936 q 836 955 849 955 l 727 955 q 704 945 713 955 q 694 922 694 936 l 694 814 q 704 791 694 800 q 727 781 713 781 m 380 521 l 488 521 q 511 530 502 521 q 521 553 521 540 l 521 662 q 511 685 521 675 q 488 694 502 694 l 380 694 q 357 685 366 694 q 347 662 347 675 l 347 553 q 357 530 347 540 q 380 521 366 521 m 727 521 l 836 521 q 859 530 849 521 q 868 553 868 540 l 868 662 q 859 685 868 675 q 836 694 849 694 l 727 694 q 704 685 713 694 q 694 662 694 675 l 694 553 q 704 530 694 540 q 727 521 713 521 m 521 293 l 521 401 q 511 425 521 415 q 488 434 502 434 l 380 434 q 357 425 366 434 q 347 401 347 415 l 347 293 q 357 270 347 279 q 380 260 366 260 l 488 260 q 511 270 502 260 q 521 293 521 279 m 727 260 l 836 260 q 859 270 849 260 q 868 293 868 279 l 868 401 q 859 425 868 415 q 836 434 849 434 l 727 434 q 704 425 713 434 q 694 401 694 415 l 694 293 q 704 270 694 279 q 727 260 713 260 m 1215 -76 l 1215 -174 l 0 -174 l 0 -76 q 9 -53 0 -62 q 33 -43 19 -43 l 87 -43 l 87 1150 q 104 1196 84 1177 q 152 1215 125 1215 l 1066 1215 q 1111 1196 1090 1215 q 1128 1150 1131 1177 l 1128 -43 l 1183 -43 q 1206 -53 1196 -43 q 1215 -76 1215 -62 m 217 -41 l 521 -41 l 521 141 q 530 164 521 155 q 553 174 540 174 l 662 174 q 685 164 675 174 q 694 141 694 155 l 694 -41 l 1001 -41 l 1001 1082 l 217 1085 l 217 -41 z "},"":{"ha":1215,"x_min":0,"x_max":1215,"o":"m 401 434 l 293 434 q 270 444 279 434 q 260 467 260 453 l 260 575 q 270 598 260 589 q 293 608 279 608 l 401 608 q 425 598 415 608 q 434 575 434 589 l 434 467 q 425 444 434 453 q 401 434 415 434 m 694 467 l 694 575 q 685 598 694 589 q 662 608 675 608 l 553 608 q 530 598 540 608 q 521 575 521 589 l 521 467 q 530 444 521 453 q 553 434 540 434 l 662 434 q 685 444 675 434 q 694 467 694 453 m 955 467 l 955 575 q 945 598 955 589 q 922 608 936 608 l 814 608 q 791 598 800 608 q 781 575 781 589 l 781 467 q 791 444 781 453 q 814 434 800 434 l 922 434 q 945 444 936 434 q 955 467 955 453 m 694 206 l 694 315 q 685 338 694 328 q 662 347 675 347 l 553 347 q 530 338 540 347 q 521 315 521 328 l 521 206 q 530 183 521 193 q 553 174 540 174 l 662 174 q 685 183 675 174 q 694 206 694 193 m 434 206 l 434 315 q 425 338 434 328 q 401 347 415 347 l 293 347 q 270 338 279 347 q 260 315 260 328 l 260 206 q 270 183 260 193 q 293 174 279 174 l 401 174 q 425 183 415 174 q 434 206 434 193 m 955 206 l 955 315 q 945 338 955 328 q 922 347 936 347 l 814 347 q 791 338 800 347 q 781 315 781 328 l 781 206 q 791 183 781 193 q 814 174 800 174 l 922 174 q 945 183 936 174 q 955 206 955 193 m 1215 911 l 1215 -43 q 1177 -136 1215 -98 q 1085 -174 1139 -174 l 130 -174 q 38 -136 76 -174 q 0 -43 0 -98 l 0 911 q 38 1004 0 966 q 130 1042 76 1042 l 260 1042 l 260 1183 q 270 1206 260 1196 q 293 1215 279 1215 l 401 1215 q 425 1206 415 1215 q 434 1183 434 1196 l 434 1042 l 781 1042 l 781 1183 q 791 1206 781 1196 q 814 1215 800 1215 l 922 1215 q 945 1206 936 1215 q 955 1183 955 1196 l 955 1042 l 1085 1042 q 1177 1004 1139 1042 q 1215 911 1215 966 m 1085 -27 l 1085 781 l 130 781 l 130 -27 q 136 -38 130 -33 q 146 -43 141 -43 l 1069 -43 q 1080 -38 1074 -43 q 1085 -27 1085 -33 z "},"":{"ha":1215,"x_min":0,"x_max":1215,"o":"m 1085 1042 l 955 1042 l 955 1183 q 945 1206 955 1196 q 922 1215 936 1215 l 814 1215 q 791 1206 800 1215 q 781 1183 781 1196 l 781 1042 l 434 1042 l 434 1183 q 425 1206 434 1196 q 401 1215 415 1215 l 293 1215 q 270 1206 279 1215 q 260 1183 260 1196 l 260 1042 l 130 1042 q 38 1004 76 1042 q 0 911 0 966 l 0 -43 q 38 -136 0 -98 q 130 -174 76 -174 l 1085 -174 q 1177 -136 1139 -174 q 1215 -43 1215 -98 l 1215 911 q 1177 1004 1215 966 q 1085 1042 1139 1042 m 1069 -43 l 146 -43 q 136 -38 141 -43 q 130 -27 130 -33 l 130 781 l 1085 781 l 1085 -27 q 1080 -38 1085 -33 q 1069 -43 1074 -43 m 925 502 l 540 117 q 515 109 529 109 q 494 119 502 109 l 290 323 q 279 347 279 334 q 290 369 279 361 l 353 431 q 374 439 361 439 q 399 431 388 439 l 518 309 l 819 608 q 841 618 827 618 q 865 608 854 618 l 925 548 q 936 524 936 537 q 925 502 936 510 z "},"":{"ha":1215,"x_min":0,"x_max":1215,"o":"m 336 326 q 313 335 323 326 q 304 358 304 345 l 304 423 q 313 446 304 437 q 336 456 323 456 l 879 456 q 902 446 892 456 q 911 423 911 437 l 911 358 q 902 335 911 345 q 879 326 892 326 l 336 326 m 1215 911 l 1215 -43 q 1177 -136 1215 -98 q 1085 -174 1139 -174 l 130 -174 q 38 -136 76 -174 q 0 -43 0 -98 l 0 911 q 38 1004 0 966 q 130 1042 76 1042 l 260 1042 l 260 1183 q 270 1206 260 1196 q 293 1215 279 1215 l 401 1215 q 425 1206 415 1215 q 434 1183 434 1196 l 434 1042 l 781 1042 l 781 1183 q 791 1206 781 1196 q 814 1215 800 1215 l 922 1215 q 945 1206 936 1215 q 955 1183 955 1196 l 955 1042 l 1085 1042 q 1177 1004 1139 1042 q 1215 911 1215 966 m 1085 -27 l 1085 781 l 130 781 l 130 -27 q 136 -38 130 -33 q 146 -43 141 -43 l 1069 -43 q 1080 -38 1074 -43 q 1085 -27 1085 -33 z "},"":{"ha":1215,"x_min":0,"x_max":1215,"o":"m 911 423 l 911 358 q 902 335 911 345 q 879 326 892 326 l 673 326 l 673 119 q 663 96 673 106 q 640 87 654 87 l 575 87 q 552 96 562 87 q 543 119 543 106 l 543 326 l 336 326 q 313 335 323 326 q 304 358 304 345 l 304 423 q 313 446 304 437 q 336 456 323 456 l 543 456 l 543 662 q 552 685 543 675 q 575 694 562 694 l 640 694 q 663 685 654 694 q 673 662 673 675 l 673 456 l 879 456 q 902 446 892 456 q 911 423 911 437 m 1215 911 l 1215 -43 q 1177 -136 1215 -98 q 1085 -174 1139 -174 l 130 -174 q 38 -136 76 -174 q 0 -43 0 -98 l 0 911 q 38 1004 0 966 q 130 1042 76 1042 l 260 1042 l 260 1183 q 270 1206 260 1196 q 293 1215 279 1215 l 401 1215 q 425 1206 415 1215 q 434 1183 434 1196 l 434 1042 l 781 1042 l 781 1183 q 791 1206 781 1196 q 814 1215 800 1215 l 922 1215 q 945 1206 936 1215 q 955 1183 955 1196 l 955 1042 l 1085 1042 q 1177 1004 1139 1042 q 1215 911 1215 966 m 1085 -27 l 1085 781 l 130 781 l 130 -27 q 136 -38 130 -33 q 146 -43 141 -43 l 1069 -43 q 1080 -38 1074 -43 q 1085 -27 1085 -33 z "},"":{"ha":1215,"x_min":0,"x_max":1215,"o":"m 846 198 l 800 152 q 776 144 789 144 q 754 152 762 144 l 608 298 l 461 152 q 439 144 453 144 q 415 152 426 144 l 369 198 q 361 222 361 209 q 369 244 361 236 l 515 391 l 369 537 q 361 559 361 545 q 369 583 361 572 l 415 629 q 439 637 426 637 q 461 629 453 637 l 608 483 l 754 629 q 776 637 762 637 q 800 629 789 637 l 846 583 q 854 559 854 572 q 846 537 854 545 l 700 391 l 846 244 q 854 222 854 236 q 846 198 854 209 m 1215 911 l 1215 -43 q 1177 -136 1215 -98 q 1085 -174 1139 -174 l 130 -174 q 38 -136 76 -174 q 0 -43 0 -98 l 0 911 q 38 1004 0 966 q 130 1042 76 1042 l 260 1042 l 260 1183 q 270 1206 260 1196 q 293 1215 279 1215 l 401 1215 q 425 1206 415 1215 q 434 1183 434 1196 l 434 1042 l 781 1042 l 781 1183 q 791 1206 781 1196 q 814 1215 800 1215 l 922 1215 q 945 1206 936 1215 q 955 1183 955 1196 l 955 1042 l 1085 1042 q 1177 1004 1139 1042 q 1215 911 1215 966 m 1085 -27 l 1085 781 l 130 781 l 130 -27 q 136 -38 130 -33 q 146 -43 141 -43 l 1069 -43 q 1080 -38 1074 -43 q 1085 -27 1085 -33 z "},"":{"ha":1215,"x_min":0,"x_max":1215,"o":"m 1085 1042 l 955 1042 l 955 1183 q 945 1206 955 1196 q 922 1215 936 1215 l 814 1215 q 791 1206 800 1215 q 781 1183 781 1196 l 781 1042 l 434 1042 l 434 1183 q 425 1206 434 1196 q 401 1215 415 1215 l 293 1215 q 270 1206 279 1215 q 260 1183 260 1196 l 260 1042 l 130 1042 q 38 1004 76 1042 q 0 911 0 966 l 0 -43 q 38 -136 0 -98 q 130 -174 76 -174 l 1085 -174 q 1177 -136 1139 -174 q 1215 -43 1215 -98 l 1215 911 q 1177 1004 1215 966 q 1085 1042 1139 1042 m 1069 -43 l 146 -43 q 136 -38 141 -43 q 130 -27 130 -33 l 130 781 l 1085 781 l 1085 -27 q 1080 -38 1085 -33 q 1069 -43 1074 -43 z "},"":{"ha":1215,"x_min":0,"x_max":1215,"o":"m 339 651 l 876 651 q 906 631 898 651 q 898 597 914 610 l 632 328 q 608 320 621 320 q 586 328 594 320 l 317 597 q 309 631 301 610 q 339 651 317 651 m 1215 998 l 1215 43 q 1177 -49 1215 -11 q 1085 -87 1139 -87 l 130 -87 q 38 -49 76 -87 q 0 43 0 -11 l 0 998 q 38 1090 0 1053 q 130 1128 76 1128 l 1085 1128 q 1177 1090 1139 1128 q 1215 998 1215 1053 m 1085 60 l 1085 982 q 1080 993 1085 987 q 1069 998 1074 998 l 146 998 q 136 993 141 998 q 130 982 130 987 l 130 60 q 136 49 130 54 q 146 43 141 43 l 1069 43 q 1080 49 1074 43 q 1085 60 1085 54 z "},"":{"ha":1215,"x_min":0,"x_max":1215,"o":"m 738 789 l 738 252 q 718 222 738 231 q 684 231 697 214 l 415 499 q 407 521 407 507 q 415 543 407 534 l 684 811 q 718 819 697 827 q 738 789 738 811 m 1215 998 l 1215 43 q 1177 -49 1215 -11 q 1085 -87 1139 -87 l 130 -87 q 38 -49 76 -87 q 0 43 0 -11 l 0 998 q 38 1090 0 1053 q 130 1128 76 1128 l 1085 1128 q 1177 1090 1139 1128 q 1215 998 1215 1053 m 1085 60 l 1085 982 q 1080 993 1085 987 q 1069 998 1074 998 l 146 998 q 136 993 141 998 q 130 982 130 987 l 130 60 q 136 49 130 54 q 146 43 141 43 l 1069 43 q 1080 49 1074 43 q 1085 60 1085 54 z "},"":{"ha":1215,"x_min":0,"x_max":1215,"o":"m 477 252 l 477 789 q 498 819 477 811 q 534 811 518 827 l 800 545 q 808 521 808 534 q 800 499 808 507 l 534 231 q 498 222 518 214 q 477 252 477 231 m 1215 998 l 1215 43 q 1177 -49 1215 -11 q 1085 -87 1139 -87 l 130 -87 q 38 -49 76 -87 q 0 43 0 -11 l 0 998 q 38 1090 0 1053 q 130 1128 76 1128 l 1085 1128 q 1177 1090 1139 1128 q 1215 998 1215 1053 m 1085 60 l 1085 982 q 1080 993 1085 987 q 1069 998 1074 998 l 146 998 q 136 993 141 998 q 130 982 130 987 l 130 60 q 136 49 130 54 q 146 43 141 43 l 1069 43 q 1080 49 1074 43 q 1085 60 1085 54 z "},"":{"ha":1215,"x_min":0,"x_max":1215,"o":"m 876 391 l 339 391 q 309 411 317 391 q 317 448 301 431 l 586 713 q 608 722 594 722 q 629 713 621 722 l 898 448 q 906 411 914 431 q 876 391 898 391 m 1215 998 l 1215 43 q 1177 -49 1215 -11 q 1085 -87 1139 -87 l 130 -87 q 38 -49 76 -87 q 0 43 0 -11 l 0 998 q 38 1090 0 1053 q 130 1128 76 1128 l 1085 1128 q 1177 1090 1139 1128 q 1215 998 1215 1053 m 1085 60 l 1085 982 q 1080 993 1085 987 q 1069 998 1074 998 l 146 998 q 136 993 141 998 q 130 982 130 987 l 130 60 q 136 49 130 54 q 146 43 141 43 l 1069 43 q 1080 49 1074 43 q 1085 60 1085 54 z "},"":{"ha":1389,"x_min":0,"x_max":1389,"o":"m 1356 130 q 1379 121 1370 130 q 1389 98 1389 111 l 1389 33 q 1379 9 1389 19 q 1356 0 1370 0 l 33 0 q 9 9 19 0 q 0 33 0 19 l 0 1009 q 9 1032 0 1023 q 33 1042 19 1042 l 98 1042 q 121 1032 111 1042 q 130 1009 130 1023 l 130 130 l 1356 130 m 391 293 l 391 488 q 381 511 391 502 q 358 521 372 521 l 293 521 q 270 511 279 521 q 260 488 260 502 l 260 293 q 270 270 260 279 q 293 260 279 260 l 358 260 q 381 270 372 260 q 391 293 391 279 m 651 293 l 651 836 q 642 859 651 849 q 618 868 632 868 l 553 868 q 530 859 540 868 q 521 836 521 849 l 521 293 q 530 270 521 279 q 553 260 540 260 l 618 260 q 642 270 632 260 q 651 293 651 279 m 911 293 l 911 662 q 902 685 911 675 q 879 694 892 694 l 814 694 q 791 685 800 694 q 781 662 781 675 l 781 293 q 791 270 781 279 q 814 260 800 260 l 879 260 q 902 270 892 260 q 911 293 911 279 m 1172 293 l 1172 922 q 1162 945 1172 936 q 1139 955 1153 955 l 1074 955 q 1051 945 1061 955 q 1042 922 1042 936 l 1042 293 q 1051 270 1042 279 q 1074 260 1061 260 l 1139 260 q 1162 270 1153 260 q 1172 293 1172 279 z "},"":{"ha":1389,"x_min":0,"x_max":1370,"o":"m 694 1194 q 358 1103 513 1194 q 113 857 203 1012 q 22 521 22 703 q 113 184 22 339 q 358 -61 203 30 q 694 -152 513 -152 q 1031 -61 876 -152 q 1276 184 1185 30 q 1367 521 1367 339 q 1276 857 1367 703 q 1031 1103 1185 1012 q 694 1194 876 1194 m 694 1063 q 966 990 841 1063 q 1164 792 1090 917 q 1237 521 1237 667 q 1164 250 1237 374 q 966 52 1090 125 q 694 -22 841 -22 q 423 52 548 -22 q 225 250 298 125 q 152 521 152 374 q 225 792 152 667 q 423 990 298 917 q 694 1063 548 1063 m 1074 711 l 1015 770 q 990 781 1004 781 q 968 773 977 781 l 583 391 l 423 556 q 399 564 412 564 q 377 556 385 564 l 315 494 q 304 472 304 486 q 315 448 304 458 l 562 201 q 583 190 570 190 q 608 201 597 190 l 1074 665 q 1085 686 1085 673 q 1074 711 1085 700 z "},"":{"ha":1215,"x_min":0,"x_max":1215,"o":"m 1085 1128 l 130 1128 q 38 1090 76 1128 q 0 998 0 1053 l 0 43 q 38 -49 0 -11 q 130 -87 76 -87 l 1085 -87 q 1177 -49 1139 -87 q 1215 43 1215 -11 l 1215 998 q 1177 1090 1215 1053 q 1085 1128 1139 1128 m 1085 43 l 130 43 l 130 998 l 1085 998 l 1085 43 m 987 700 l 521 236 q 496 225 510 225 q 475 236 483 225 l 228 483 q 217 507 217 494 q 228 529 217 521 l 290 591 q 312 600 298 600 q 336 591 326 600 l 496 426 l 882 806 q 903 817 890 817 q 928 806 917 817 l 987 746 q 998 722 998 735 q 987 700 998 708 z "},"":{"ha":1389,"x_min":0,"x_max":1367,"o":"m 694 1194 q 358 1103 513 1194 q 113 857 203 1012 q 22 521 22 703 q 113 184 22 339 q 358 -61 203 30 q 694 -152 513 -152 q 1031 -61 876 -152 q 1276 184 1185 30 q 1367 521 1367 339 q 1276 857 1367 703 q 1031 1103 1185 1012 q 694 1194 876 1194 m 694 -22 q 423 52 548 -22 q 225 250 298 125 q 152 521 152 374 q 225 792 152 667 q 423 990 298 917 q 694 1063 548 1063 q 966 990 841 1063 q 1164 792 1090 917 q 1237 521 1237 667 q 1164 250 1237 374 q 966 52 1090 125 q 694 -22 841 -22 z "},"":{"ha":1042,"x_min":0,"x_max":1042,"o":"m 911 1042 l 694 1042 q 643 1164 694 1112 q 521 1215 591 1215 q 399 1164 450 1215 q 347 1042 347 1112 l 130 1042 q 38 1004 76 1042 q 0 911 0 966 l 0 -43 q 38 -136 0 -98 q 130 -174 76 -174 l 911 -174 q 1004 -136 966 -174 q 1042 -43 1042 -98 l 1042 911 q 1004 1004 1042 966 q 911 1042 966 1042 m 895 -43 l 146 -43 q 136 -38 141 -43 q 130 -27 130 -33 l 130 895 q 136 906 130 901 q 146 911 141 911 l 260 911 l 260 814 q 270 791 260 800 q 293 781 279 781 l 749 781 q 772 791 762 781 q 781 814 781 800 l 781 911 l 895 911 q 906 906 901 911 q 911 895 911 901 l 911 -27 q 906 -38 911 -33 q 895 -43 901 -43 m 521 1107 q 567 1088 548 1107 q 586 1042 586 1069 q 567 996 586 1015 q 521 977 548 977 q 475 996 494 977 q 456 1042 456 1015 q 475 1088 456 1069 q 521 1107 494 1107 z "},"":{"ha":1389,"x_min":0,"x_max":1367,"o":"m 694 1194 q 358 1103 513 1194 q 113 857 203 1012 q 22 521 22 703 q 113 184 22 339 q 358 -61 203 30 q 694 -152 513 -152 q 1031 -61 876 -152 q 1276 184 1185 30 q 1367 521 1367 339 q 1276 857 1367 703 q 1031 1103 1185 1012 q 694 1194 876 1194 m 694 -22 q 423 52 548 -22 q 225 250 298 125 q 152 521 152 374 q 225 792 152 667 q 423 990 298 917 q 694 1063 548 1063 q 966 990 841 1063 q 1164 792 1090 917 q 1237 521 1237 667 q 1164 250 1237 374 q 966 52 1090 125 q 694 -22 841 -22 m 863 260 l 632 429 q 618 456 618 439 l 618 901 q 628 924 618 914 q 651 933 637 933 l 738 933 q 761 924 751 933 q 770 901 770 914 l 770 515 l 952 385 q 964 363 963 377 q 958 339 966 350 l 909 269 q 887 255 901 258 q 863 260 873 252 z "},"":{"ha":1389,"x_min":0,"x_max":1389,"o":"m 1259 1215 l 391 1215 q 298 1177 336 1215 q 260 1085 260 1139 l 260 955 l 130 955 q 38 917 76 955 q 0 825 0 879 l 0 -43 q 38 -136 0 -98 q 130 -174 76 -174 l 998 -174 q 1090 -136 1053 -174 q 1128 -43 1128 -98 l 1128 87 l 1259 87 q 1351 125 1313 87 q 1389 217 1389 163 l 1389 1085 q 1351 1177 1389 1139 q 1259 1215 1313 1215 m 982 -43 l 146 -43 q 136 -38 141 -43 q 130 -27 130 -33 l 130 808 q 136 819 130 814 q 146 825 141 825 l 260 825 l 260 217 q 298 125 260 163 q 391 87 336 87 l 998 87 l 998 -27 q 993 -38 998 -33 q 982 -43 987 -43 m 1242 217 l 407 217 q 396 222 401 217 q 391 233 391 228 l 391 1069 q 396 1080 391 1074 q 407 1085 401 1085 l 1242 1085 q 1253 1080 1248 1085 q 1259 1069 1259 1074 l 1259 233 q 1253 222 1259 228 q 1242 217 1248 217 z "},"":{"ha":1389,"x_min":0,"x_max":1389,"o":"m 1259 1042 l 130 1042 q 38 1004 76 1042 q 0 911 0 966 l 0 130 q 38 38 0 76 q 130 0 76 0 l 1259 0 q 1351 38 1313 0 q 1389 130 1389 76 l 1389 911 q 1351 1004 1389 966 q 1259 1042 1313 1042 m 1242 130 l 146 130 q 136 136 141 130 q 130 146 130 141 l 130 895 q 136 906 130 901 q 146 911 141 911 l 1242 911 q 1253 906 1248 911 q 1259 895 1259 901 l 1259 146 q 1253 136 1259 141 q 1242 130 1248 130 m 670 363 q 667 342 678 353 q 536 267 616 285 q 378 274 456 250 q 252 361 301 298 q 201 526 201 429 q 290 722 201 651 q 486 785 372 787 q 667 716 600 784 q 670 700 675 708 l 624 618 q 612 609 618 610 q 600 613 605 608 q 484 658 545 656 q 382 624 423 659 q 342 526 342 589 q 381 425 342 464 q 479 388 420 385 q 591 439 537 391 q 605 445 597 445 q 616 437 613 445 l 670 363 m 1185 363 q 1185 342 1194 353 q 1051 267 1131 285 q 894 274 971 250 q 768 361 817 298 q 716 526 716 429 q 806 722 716 651 q 1001 785 887 787 q 1185 716 1115 784 q 1185 700 1191 708 l 1139 618 q 1128 609 1137 610 q 1115 613 1120 608 q 1000 658 1061 656 q 898 624 939 659 q 857 526 857 589 q 897 425 857 464 q 996 388 936 385 q 1109 439 1055 391 q 1122 445 1115 445 q 1134 437 1128 445 l 1185 363 z "},"":{"ha":1389,"x_min":0,"x_max":1389,"o":"m 1215 1215 l 174 1215 q 52 1164 103 1215 q 0 1042 0 1112 l 0 260 q 52 138 0 190 q 174 87 103 87 l 434 87 l 434 -141 q 444 -164 434 -155 q 465 -174 453 -174 q 486 -168 477 -174 l 825 87 l 1215 87 q 1337 138 1286 87 q 1389 260 1389 190 l 1389 1042 q 1337 1164 1389 1112 q 1215 1215 1286 1215 m 1259 260 q 1246 229 1259 241 q 1215 217 1234 217 l 781 217 l 564 54 l 564 217 l 174 217 q 142 229 155 217 q 130 260 130 241 l 130 1042 q 142 1073 130 1061 q 174 1085 155 1085 l 1215 1085 q 1246 1073 1234 1085 q 1259 1042 1259 1061 l 1259 260 z "},"":{"ha":1389,"x_min":-3,"x_max":1392,"o":"m 694 1128 q 346 1053 505 1128 q 94 848 187 977 q 0 564 0 719 q 144 222 0 374 q 65 81 119 155 q 18 20 30 33 q 1 -11 5 8 q 5 -47 -3 -30 q 30 -76 14 -65 q 65 -87 46 -87 q 442 38 266 -87 q 694 0 567 0 q 1043 76 884 0 q 1295 281 1202 152 q 1389 564 1389 410 q 1295 848 1389 719 q 1043 1053 1202 977 q 694 1128 884 1128 m 694 130 q 483 163 586 130 l 420 182 l 366 146 q 212 65 293 92 q 266 176 244 122 l 293 252 l 239 312 q 130 564 130 426 q 206 781 130 681 q 412 940 282 882 q 694 998 543 998 q 977 940 846 998 q 1183 781 1107 882 q 1259 564 1259 681 q 1183 347 1259 448 q 977 189 1107 247 q 694 130 846 130 z "},"":{"ha":1563,"x_min":-3,"x_max":1565,"o":"m 1443 168 q 1563 434 1563 285 q 1500 632 1563 540 q 1328 785 1438 724 q 1085 863 1218 846 q 879 1055 1020 982 q 564 1128 738 1128 q 281 1070 410 1128 q 76 911 152 1012 q 0 694 0 811 q 119 429 0 545 q 54 323 92 377 q 18 278 30 290 q 1 247 5 266 q 5 212 -3 228 q 28 184 14 195 q 62 174 43 174 q 401 279 241 174 q 480 266 439 271 q 685 73 545 146 q 998 0 825 0 q 1161 19 1080 0 q 1500 -87 1324 -87 q 1534 -76 1519 -87 q 1557 -49 1549 -65 q 1563 -14 1565 -33 q 1546 19 1560 5 q 1508 62 1538 24 q 1443 168 1470 117 m 377 418 l 331 388 q 214 331 274 350 l 236 369 l 279 456 l 212 521 q 130 694 130 600 q 190 845 130 776 q 349 956 250 914 q 564 998 448 998 q 780 956 681 998 q 939 845 879 914 q 998 694 998 776 q 939 544 998 613 q 780 433 879 475 q 564 391 681 391 q 431 407 496 391 l 377 418 m 1351 260 l 1286 195 l 1326 111 l 1348 71 q 1232 127 1289 90 l 1185 157 l 1131 146 q 998 130 1066 130 q 796 167 890 130 q 643 266 703 203 q 890 340 779 279 q 1065 494 1001 401 q 1128 694 1128 586 l 1126 722 q 1345 612 1259 692 q 1432 435 1432 532 q 1351 260 1432 339 z "},"":{"ha":1389,"x_min":0,"x_max":1370,"o":"m 694 1194 q 358 1103 513 1194 q 113 857 203 1012 q 22 521 22 703 q 113 184 22 339 q 358 -61 203 30 q 694 -152 513 -152 q 1031 -61 876 -152 q 1276 184 1185 30 q 1367 521 1367 339 q 1276 857 1367 703 q 1031 1103 1185 1012 q 694 1194 876 1194 m 694 -22 q 423 52 548 -22 q 225 250 298 125 q 152 521 152 374 q 225 792 152 667 q 423 990 298 917 q 694 1063 548 1063 q 966 990 841 1063 q 1164 792 1090 917 q 1237 521 1237 667 q 1164 250 1237 374 q 966 52 1090 125 q 694 -22 841 -22 m 941 825 l 852 450 q 833 420 846 431 l 556 155 q 503 137 532 133 q 457 164 475 141 q 448 217 439 187 l 537 591 q 556 621 543 610 l 833 887 q 886 905 857 909 q 932 878 914 901 q 941 825 949 854 m 694 608 q 633 582 659 608 q 608 521 608 556 q 633 460 608 486 q 694 434 659 434 q 755 460 730 434 q 781 521 781 486 q 755 582 781 556 q 694 608 730 608 z "},"":{"ha":1215,"x_min":0,"x_max":1215,"o":"m 1177 1036 l 1036 1177 q 944 1215 998 1215 l 477 1215 q 385 1177 423 1215 q 347 1085 347 1139 l 347 955 l 130 955 q 38 917 76 955 q 0 825 0 879 l 0 -43 q 38 -136 0 -98 q 130 -174 76 -174 l 738 -174 q 830 -136 792 -174 q 868 -43 868 -98 l 868 87 l 1085 87 q 1177 125 1139 87 q 1215 217 1215 163 l 1215 944 q 1177 1036 1215 998 m 722 -43 l 146 -43 q 136 -38 141 -43 q 130 -27 130 -33 l 130 808 q 136 819 130 814 q 146 825 141 825 l 347 825 l 347 217 q 385 125 347 163 q 477 87 423 87 l 738 87 l 738 -27 q 732 -38 738 -33 q 722 -43 727 -43 m 1069 217 l 494 217 q 483 222 488 217 q 477 233 477 228 l 477 1069 q 483 1080 477 1074 q 494 1085 488 1085 l 781 1085 l 781 846 q 800 800 781 819 q 846 781 819 781 l 1085 781 l 1085 233 q 1080 222 1085 228 q 1069 217 1074 217 m 1085 911 l 911 911 l 911 1085 l 939 1085 q 949 1080 944 1085 l 1080 949 q 1085 939 1085 944 l 1085 911 z "},"":{"ha":1389,"x_min":0,"x_max":1370,"o":"m 694 1194 q 358 1103 513 1194 q 113 857 203 1012 q 22 521 22 703 q 113 184 22 339 q 358 -61 203 30 q 694 -152 513 -152 q 1031 -61 876 -152 q 1276 184 1185 30 q 1367 521 1367 339 q 1276 857 1367 703 q 1031 1103 1185 1012 q 694 1194 876 1194 m 694 -22 q 423 52 548 -22 q 225 250 298 125 q 152 521 152 374 q 225 792 152 667 q 423 990 298 917 q 694 1063 548 1063 q 966 990 841 1063 q 1164 792 1090 917 q 1237 521 1237 667 q 1164 250 1237 374 q 966 52 1090 125 q 694 -22 841 -22 m 985 252 q 895 187 949 214 q 703 141 806 141 q 507 191 594 141 q 372 328 420 241 q 323 522 323 415 q 372 716 323 629 q 507 853 420 803 q 703 903 594 903 q 882 863 798 903 q 966 808 930 841 q 975 788 974 800 q 971 768 977 776 l 922 689 q 901 675 914 678 q 873 684 887 673 q 708 743 798 743 q 553 681 610 743 q 496 526 496 618 q 551 372 496 434 q 708 298 610 298 q 822 328 765 298 q 887 372 857 347 q 911 381 898 382 q 936 369 925 380 l 990 296 q 994 273 996 285 q 985 252 993 260 z "},"":{"ha":1563,"x_min":0,"x_max":1565,"o":"m 1432 1128 l 130 1128 q 38 1090 76 1128 q 0 998 0 1053 l 0 43 q 38 -49 0 -11 q 130 -87 76 -87 l 1432 -87 q 1525 -49 1487 -87 q 1563 43 1563 -11 l 1563 998 q 1525 1090 1563 1053 q 1432 1128 1487 1128 m 146 998 l 1416 998 q 1427 993 1421 998 q 1432 982 1432 987 l 1432 868 l 130 868 l 130 982 q 136 993 130 987 q 146 998 141 998 m 1416 43 l 146 43 q 136 49 141 43 q 130 60 130 54 l 130 521 l 1432 521 l 1432 60 q 1427 49 1432 54 q 1416 43 1421 43 m 521 315 l 521 206 q 511 183 521 193 q 488 174 502 174 l 293 174 q 270 183 279 174 q 260 206 260 193 l 260 315 q 270 338 260 328 q 293 347 279 347 l 488 347 q 511 338 502 347 q 521 315 521 328 m 1042 315 l 1042 206 q 1032 183 1042 193 q 1009 174 1023 174 l 640 174 q 617 183 627 174 q 608 206 608 193 l 608 315 q 617 338 608 328 q 640 347 627 347 l 1009 347 q 1032 338 1023 347 q 1042 315 1042 328 z "},"":{"ha":1389,"x_min":0,"x_max":1370,"o":"m 694 1063 q 966 990 841 1063 q 1164 792 1090 917 q 1237 521 1237 667 q 1164 250 1237 374 q 966 52 1090 125 q 694 -22 841 -22 q 423 52 548 -22 q 225 250 298 125 q 152 521 152 374 q 225 792 152 667 q 423 990 298 917 q 694 1063 548 1063 m 694 1194 q 358 1103 513 1194 q 113 857 203 1012 q 22 521 22 703 q 113 184 22 339 q 358 -61 203 30 q 694 -152 513 -152 q 1031 -61 876 -152 q 1276 184 1185 30 q 1367 521 1367 339 q 1276 857 1367 703 q 1031 1103 1185 1012 q 694 1194 876 1194 m 694 738 q 541 674 605 738 q 477 521 477 610 q 541 368 477 431 q 694 304 605 304 q 848 368 784 304 q 911 521 911 431 q 848 674 911 610 q 694 738 784 738 z "},"":{"ha":1563,"x_min":0,"x_max":1565,"o":"m 1090 279 l 1177 366 q 1202 372 1188 377 q 1215 350 1215 366 l 1215 -43 q 1177 -136 1215 -98 q 1085 -174 1139 -174 l 130 -174 q 38 -136 76 -174 q 0 -43 0 -98 l 0 911 q 38 1004 0 966 q 130 1042 76 1042 l 873 1042 q 892 1028 887 1042 q 887 1004 898 1015 l 800 917 q 787 911 795 911 l 130 911 l 130 -43 l 1085 -43 l 1085 266 q 1090 279 1085 274 m 1516 827 l 803 114 l 559 87 q 467 119 505 81 q 434 212 429 157 l 461 456 l 1175 1169 q 1287 1215 1221 1215 q 1400 1169 1354 1215 l 1516 1053 q 1563 940 1563 1006 q 1516 827 1563 873 m 1248 743 l 1090 901 l 586 396 l 567 220 l 743 239 l 1248 743 m 1424 960 l 1308 1077 q 1287 1085 1299 1085 q 1267 1077 1275 1085 l 1183 993 l 1340 836 l 1424 920 q 1432 940 1432 928 q 1424 960 1432 952 z "},"":{"ha":1389,"x_min":0,"x_max":1389,"o":"m 1343 768 q 974 1063 1245 849 l 947 1088 q 836 1172 879 1145 q 694 1215 760 1215 q 553 1172 629 1215 q 442 1088 513 1145 l 415 1063 q 49 770 157 860 q 0 670 0 730 l 0 -43 q 38 -136 0 -98 q 130 -174 76 -174 l 1259 -174 q 1351 -136 1313 -174 q 1389 -43 1389 -98 l 1389 667 q 1343 768 1389 730 m 1259 -27 q 1253 -38 1259 -33 q 1242 -43 1248 -43 l 146 -43 q 136 -38 141 -43 q 130 -27 130 -33 l 130 662 q 136 673 130 670 l 524 985 q 608 1050 578 1031 q 694 1085 659 1085 q 781 1050 730 1085 q 865 985 811 1031 l 892 963 q 1253 673 1034 852 q 1259 662 1259 667 l 1259 -27 m 1172 483 q 1179 458 1180 472 q 1166 437 1177 445 l 947 258 q 836 174 876 201 q 694 130 760 130 q 553 174 629 130 q 442 258 510 201 l 222 437 q 210 458 212 445 q 217 483 209 472 l 258 532 q 279 544 266 543 q 304 537 293 545 l 524 361 q 608 296 578 315 q 694 260 659 260 q 781 296 730 260 q 865 361 811 315 l 1085 537 q 1109 544 1096 545 q 1131 532 1123 543 l 1172 483 z "},"":{"ha":1389,"x_min":0,"x_max":1389,"o":"m 1259 1042 l 130 1042 q 38 1004 76 1042 q 0 911 0 966 l 0 130 q 38 38 0 76 q 130 0 76 0 l 1259 0 q 1351 38 1313 0 q 1389 130 1389 76 l 1389 911 q 1351 1004 1389 966 q 1259 1042 1313 1042 m 1259 911 l 1259 800 q 892 513 1164 722 l 868 491 q 781 426 814 445 q 694 391 730 391 q 608 426 659 391 q 521 491 575 445 l 496 513 q 130 800 225 724 l 130 911 l 1259 911 m 130 130 l 130 635 l 442 385 q 553 304 513 328 q 694 260 629 260 q 833 304 760 260 q 944 385 876 328 l 1259 635 l 1259 130 l 130 130 z "},"":{"ha":1563,"x_min":-3,"x_max":1563,"o":"m 741 241 q 549 320 632 252 q 431 488 467 388 q 423 694 396 589 l 741 241 m 781 152 q 403 252 575 152 q 130 521 231 353 q 369 770 220 673 l 296 876 q 19 586 122 762 q 0 521 0 556 q 19 456 0 486 q 336 141 136 258 q 781 22 540 22 q 890 27 836 22 l 803 152 l 781 152 m 1544 456 q 1377 250 1476 339 q 1156 103 1278 160 l 1286 -84 q 1291 -107 1294 -95 q 1278 -127 1289 -119 l 1221 -168 q 1196 -174 1210 -176 q 1177 -160 1183 -171 l 277 1126 q 271 1149 269 1137 q 285 1169 274 1161 l 342 1210 q 366 1215 353 1218 q 385 1202 380 1213 l 537 987 q 781 1020 656 1020 q 1226 901 1023 1020 q 1544 586 1427 784 q 1563 521 1563 556 q 1544 456 1563 486 m 1432 521 q 1185 773 1340 675 q 846 887 1031 871 q 803 781 803 844 q 848 674 803 719 q 955 629 892 629 q 1062 674 1017 629 q 1107 781 1107 719 l 1107 781 q 1142 532 1169 665 q 1006 315 1115 399 l 1080 212 q 1282 339 1191 260 q 1432 521 1373 418 z "},"":{"ha":1042,"x_min":0,"x_max":1044,"o":"m 781 543 l 781 467 q 772 444 781 453 q 749 434 762 434 l 293 434 q 270 444 279 434 q 260 467 260 453 l 260 543 q 270 566 260 556 q 293 575 279 575 l 749 575 q 772 566 762 575 q 781 543 781 556 m 749 347 l 293 347 q 270 338 279 347 q 260 315 260 328 l 260 239 q 270 216 260 225 q 293 206 279 206 l 749 206 q 772 216 762 206 q 781 239 781 225 l 781 315 q 772 338 781 328 q 749 347 762 347 m 1042 857 l 1042 -43 q 1004 -136 1042 -98 q 911 -174 966 -174 l 130 -174 q 38 -136 76 -174 q 0 -43 0 -98 l 0 1085 q 38 1177 0 1139 q 130 1215 76 1215 l 684 1215 q 776 1177 738 1215 l 1004 949 q 1042 857 1042 911 m 694 1074 l 694 868 l 901 868 l 694 1074 m 911 -43 l 911 738 l 629 738 q 583 757 602 738 q 564 803 564 776 l 564 1085 l 130 1085 l 130 -43 l 911 -43 z "},"":{"ha":1042,"x_min":0,"x_max":1042,"o":"m 1004 949 l 776 1177 q 684 1215 738 1215 l 130 1215 q 38 1177 76 1215 q 0 1085 0 1139 l 0 -43 q 38 -136 0 -98 q 130 -174 76 -174 l 911 -174 q 1004 -136 966 -174 q 1042 -43 1042 -98 l 1042 857 q 1004 949 1042 911 m 694 1074 l 901 868 l 694 868 l 694 1074 m 911 -43 l 130 -43 l 130 1085 l 347 1085 l 347 1042 l 434 1042 l 434 1085 l 564 1085 l 564 803 q 583 757 564 776 q 629 738 602 738 l 911 738 l 911 -43 m 521 955 l 434 955 l 434 1042 l 521 1042 l 521 955 m 434 955 l 434 868 l 347 868 l 347 955 l 434 955 m 434 781 l 434 694 l 347 694 l 347 781 l 434 781 m 521 781 l 434 781 l 434 868 l 521 868 l 521 781 m 526 494 q 515 514 524 507 q 494 521 507 521 l 434 521 l 434 608 l 347 608 l 347 521 l 296 258 q 324 140 282 193 q 434 87 366 87 q 544 138 502 87 q 572 258 586 190 l 526 494 m 434 157 q 373 179 399 157 q 347 231 347 201 q 373 282 347 260 q 435 304 399 304 q 498 282 472 304 q 524 231 524 260 q 498 179 524 201 q 434 157 472 157 m 521 608 l 434 608 l 434 694 l 521 694 l 521 608 z "},"":{"ha":1042,"x_min":0,"x_max":1042,"o":"m 1004 949 l 776 1177 q 684 1215 738 1215 l 130 1215 q 38 1177 76 1215 q 0 1085 0 1139 l 0 -43 q 38 -136 0 -98 q 130 -174 76 -174 l 911 -174 q 1004 -136 966 -174 q 1042 -43 1042 -98 l 1042 857 q 1004 949 1042 911 m 901 868 l 694 868 l 694 1074 l 901 868 m 130 -43 l 130 1085 l 564 1085 l 564 803 q 583 757 564 776 q 629 738 602 738 l 911 738 l 911 -43 l 130 -43 m 521 163 q 500 133 521 141 q 467 141 480 125 l 369 239 l 293 239 q 270 248 279 239 q 260 271 260 258 l 260 423 q 270 445 260 434 q 293 456 279 456 l 369 456 l 467 553 q 500 562 480 570 q 521 532 521 553 l 521 163 m 632 290 q 651 336 651 309 q 632 382 651 363 q 617 445 605 410 q 663 491 629 480 q 727 472 697 502 q 781 336 781 415 q 727 201 781 258 q 663 182 697 171 q 617 227 629 193 q 632 290 605 260 z "},"":{"ha":1042,"x_min":0,"x_max":1042,"o":"m 1004 949 l 776 1177 q 684 1215 738 1215 l 130 1215 q 38 1177 76 1215 q 0 1085 0 1139 l 0 -43 q 38 -136 0 -98 q 130 -174 76 -174 l 911 -174 q 1004 -136 966 -174 q 1042 -43 1042 -98 l 1042 857 q 1004 949 1042 911 m 901 868 l 694 868 l 694 1074 l 901 868 m 130 -43 l 130 1085 l 564 1085 l 564 803 q 583 757 564 776 q 629 738 602 738 l 911 738 l 911 -43 l 130 -43 m 407 269 l 317 347 l 407 426 q 414 442 412 431 q 407 461 415 453 l 361 510 q 343 518 353 518 q 326 510 334 518 l 171 363 q 163 347 163 358 q 171 331 163 336 l 326 184 q 343 176 334 176 q 361 184 353 176 l 407 233 q 414 252 415 241 q 407 269 412 263 m 635 616 l 570 635 q 551 633 559 637 q 540 618 543 629 l 391 109 q 393 90 388 98 q 407 79 399 81 l 472 60 q 491 61 483 57 q 502 76 499 65 l 651 586 q 648 605 654 597 q 635 616 643 613 m 871 363 l 716 510 q 699 518 708 518 q 681 510 689 518 l 635 461 q 628 442 627 453 q 635 426 629 431 l 724 347 l 635 269 q 628 252 629 263 q 635 233 627 241 l 681 184 q 699 176 689 176 q 716 184 708 176 l 716 184 l 871 331 q 879 347 879 336 q 871 363 879 358 z "},"":{"ha":1042,"x_min":0,"x_max":1042,"o":"m 1004 949 l 776 1177 q 684 1215 738 1215 l 130 1215 q 38 1177 76 1215 q 0 1085 0 1139 l 0 -43 q 38 -136 0 -98 q 130 -174 76 -174 l 911 -174 q 1004 -136 966 -174 q 1042 -43 1042 -98 l 1042 857 q 1004 949 1042 911 m 901 868 l 694 868 l 694 1074 l 901 868 m 130 -43 l 130 1085 l 564 1085 l 564 803 q 583 757 564 776 q 629 738 602 738 l 911 738 l 911 -43 l 130 -43 m 705 608 l 627 608 q 600 591 608 608 q 521 434 545 494 l 496 486 q 445 591 483 515 q 415 608 434 608 l 336 608 q 308 591 317 608 q 309 559 298 575 l 434 347 l 309 136 q 308 103 298 119 q 336 87 317 87 l 415 87 q 442 103 434 87 q 515 244 494 195 l 521 260 l 548 203 q 600 103 562 174 q 627 87 608 87 l 705 87 q 734 103 724 87 q 732 136 743 119 l 608 347 q 732 559 637 393 q 734 591 743 575 q 705 608 724 608 z "},"":{"ha":1042,"x_min":0,"x_max":1042,"o":"m 1004 949 l 776 1177 q 684 1215 738 1215 l 130 1215 q 38 1177 76 1215 q 0 1085 0 1139 l 0 -43 q 38 -136 0 -98 q 130 -174 76 -174 l 911 -174 q 1004 -136 966 -174 q 1042 -43 1042 -98 l 1042 857 q 1004 949 1042 911 m 901 868 l 694 868 l 694 1074 l 901 868 m 130 -43 l 130 1085 l 564 1085 l 564 803 q 583 757 564 776 q 629 738 602 738 l 911 738 l 911 -43 l 130 -43 m 217 87 l 825 87 l 825 434 l 762 499 q 738 507 751 507 q 716 499 724 507 l 477 260 l 372 369 q 347 377 361 377 q 323 366 334 377 l 217 260 l 217 87 m 347 738 q 255 700 293 738 q 217 608 217 662 q 255 515 217 553 q 347 477 293 477 q 439 515 401 477 q 477 608 477 553 q 439 700 477 662 q 347 738 401 738 z "},"":{"ha":1042,"x_min":0,"x_max":1042,"o":"m 1004 949 l 776 1177 q 684 1215 738 1215 l 130 1215 q 38 1177 76 1215 q 0 1085 0 1139 l 0 -43 q 38 -136 0 -98 q 130 -174 76 -174 l 911 -174 q 1004 -136 966 -174 q 1042 -43 1042 -98 l 1042 857 q 1004 949 1042 911 m 901 868 l 694 868 l 694 1074 l 901 868 m 130 -43 l 130 1085 l 564 1085 l 564 803 q 583 757 564 776 q 629 738 602 738 l 911 738 l 911 -43 l 130 -43 m 808 347 q 635 363 773 382 q 534 491 567 404 l 534 494 q 548 640 562 602 q 518 688 543 675 q 467 690 494 700 q 434 656 439 681 q 453 475 418 605 q 355 274 399 350 q 217 149 231 209 q 228 110 214 130 q 270 87 241 90 q 334 114 298 84 q 426 233 377 152 l 458 244 q 610 288 562 279 q 690 254 648 266 q 764 241 732 241 q 810 260 795 241 q 825 305 825 279 q 808 347 825 331 m 271 136 q 345 222 282 168 l 355 231 q 309 168 331 193 q 282 141 293 149 q 271 136 271 133 m 494 654 q 507 608 507 654 q 499 543 507 562 q 488 610 488 567 q 494 654 488 654 m 426 282 q 494 431 458 336 q 575 334 526 369 q 458 296 532 326 l 426 282 m 784 296 q 776 293 781 293 q 749 296 768 290 q 684 317 722 301 q 751 316 727 320 q 783 305 776 312 q 784 296 789 298 z "},"":{"ha":1042,"x_min":0,"x_max":1042,"o":"m 1004 949 l 776 1177 q 684 1215 738 1215 l 130 1215 q 38 1177 76 1215 q 0 1085 0 1139 l 0 -43 q 38 -136 0 -98 q 130 -174 76 -174 l 911 -174 q 1004 -136 966 -174 q 1042 -43 1042 -98 l 1042 857 q 1004 949 1042 911 m 901 868 l 694 868 l 694 1074 l 901 868 m 130 -43 l 130 1085 l 564 1085 l 564 803 q 583 757 564 776 q 629 738 602 738 l 911 738 l 911 -43 l 130 -43 m 326 119 l 326 575 q 335 598 326 589 q 358 608 345 608 l 545 608 q 669 557 621 608 q 716 429 716 507 q 627 269 716 307 q 477 247 578 244 l 458 247 l 458 119 q 446 96 456 106 q 426 87 437 87 l 358 87 q 335 96 345 87 q 326 119 326 106 m 458 355 l 521 355 q 568 376 551 355 q 586 427 586 396 q 568 477 586 458 q 521 496 551 496 l 456 496 l 456 355 l 458 355 z "},"":{"ha":1042,"x_min":0,"x_max":1042,"o":"m 1004 949 l 776 1177 q 684 1215 738 1215 l 130 1215 q 38 1177 76 1215 q 0 1085 0 1139 l 0 -43 q 38 -136 0 -98 q 130 -174 76 -174 l 911 -174 q 1004 -136 966 -174 q 1042 -43 1042 -98 l 1042 857 q 1004 949 1042 911 m 901 868 l 694 868 l 694 1074 l 901 868 m 130 -43 l 130 1085 l 564 1085 l 564 803 q 583 757 564 776 q 629 738 602 738 l 911 738 l 911 -43 l 130 -43 m 751 529 l 608 388 l 608 488 q 591 526 608 510 q 553 543 575 543 l 271 543 q 233 526 250 543 q 217 488 217 510 l 217 206 q 233 168 217 184 q 271 152 250 152 l 553 152 q 591 168 575 152 q 608 206 608 184 l 608 307 l 751 165 q 798 155 770 144 q 825 195 825 165 l 825 499 q 798 540 825 529 q 751 529 770 551 z "},"":{"ha":1042,"x_min":0,"x_max":1042,"o":"m 1004 949 l 776 1177 q 684 1215 738 1215 l 130 1215 q 38 1177 76 1215 q 0 1085 0 1139 l 0 -43 q 38 -136 0 -98 q 130 -174 76 -174 l 911 -174 q 1004 -136 966 -174 q 1042 -43 1042 -98 l 1042 857 q 1004 949 1042 911 m 901 868 l 694 868 l 694 1074 l 901 868 m 130 -43 l 130 1085 l 564 1085 l 564 803 q 583 757 564 776 q 629 738 602 738 l 911 738 l 911 -43 l 130 -43 m 727 521 q 707 514 716 521 q 694 496 697 507 l 667 363 q 637 214 640 231 l 637 214 l 572 496 q 562 514 570 507 q 540 521 553 521 l 505 521 q 484 514 494 521 q 472 496 475 507 l 439 358 q 407 214 407 231 l 407 214 l 353 494 q 342 514 350 507 q 320 521 334 521 l 274 521 q 250 509 260 521 q 244 480 239 496 l 334 111 q 345 94 336 100 q 366 87 353 87 l 434 87 q 453 94 445 87 q 464 111 461 100 l 513 307 q 521 353 521 331 l 529 304 l 578 111 q 590 94 581 100 q 610 87 600 87 l 675 87 q 697 94 689 87 q 708 111 705 100 l 803 480 q 796 509 806 496 q 770 521 787 521 l 727 521 z "},"":{"ha":1042,"x_min":0,"x_max":1042,"o":"m 1004 949 l 776 1177 q 684 1215 738 1215 l 130 1215 q 38 1177 76 1215 q 0 1085 0 1139 l 0 -43 q 38 -136 0 -98 q 130 -174 76 -174 l 911 -174 q 1004 -136 966 -174 q 1042 -43 1042 -98 l 1042 857 q 1004 949 1042 911 m 901 868 l 694 868 l 694 1074 l 901 868 m 130 -43 l 130 1085 l 564 1085 l 564 803 q 583 757 564 776 q 629 738 602 738 l 911 738 l 911 -43 l 130 -43 z "},"":{"ha":1389,"x_min":0,"x_max":1389,"o":"m 911 998 q 822 1009 871 998 q 730 1036 792 1017 q 610 1069 654 1061 q 472 1085 540 1085 q 255 1044 361 1085 q 260 1101 263 1072 q 220 1180 255 1147 q 138 1215 184 1213 q 41 1180 81 1218 q 0 1085 0 1142 q 18 1020 0 1050 q 65 971 35 990 l 65 -130 q 77 -161 65 -149 q 109 -174 90 -174 l 152 -174 q 183 -161 171 -174 q 195 -130 195 -149 l 195 95 q 350 152 282 136 q 543 174 434 174 q 632 163 583 174 q 724 136 662 155 q 844 103 800 111 q 982 87 914 87 q 1329 195 1164 87 q 1373 243 1356 214 q 1389 304 1389 271 l 1389 955 q 1362 1035 1389 1001 q 1293 1081 1335 1069 q 1207 1074 1251 1093 q 911 998 1031 998 m 1259 304 q 1139 244 1207 269 q 982 217 1061 217 q 868 231 928 217 q 761 260 830 239 q 656 290 692 282 q 543 304 597 304 q 355 286 453 304 q 195 239 258 269 l 195 868 q 315 928 247 903 q 472 955 393 955 q 586 941 526 955 q 693 911 624 933 q 798 882 762 890 q 911 868 857 868 q 1096 898 993 868 q 1259 955 1185 920 l 1259 304 z "},"":{"ha":1563,"x_min":0,"x_max":1571,"o":"m 1432 608 l 1302 608 l 1302 738 q 1264 830 1302 792 q 1172 868 1226 868 l 738 868 l 564 1042 l 130 1042 q 38 1004 76 1042 q 0 911 0 966 l 0 130 q 38 38 0 76 q 130 0 76 0 l 1215 0 q 1278 16 1248 0 q 1326 62 1308 33 l 1544 410 q 1560 498 1568 450 q 1516 576 1552 545 q 1432 608 1481 608 m 146 911 l 510 911 l 684 738 l 1156 738 q 1166 732 1161 738 q 1172 722 1172 727 l 1172 608 l 412 608 q 347 591 377 608 q 301 545 317 575 l 130 263 l 130 895 q 136 906 130 901 q 146 911 141 911 m 1215 130 l 195 130 l 404 477 l 1432 477 l 1215 130 z "},"":{"ha":1389,"x_min":0,"x_max":1389,"o":"m 1259 868 l 738 868 l 564 1042 l 130 1042 q 38 1004 76 1042 q 0 911 0 966 l 0 130 q 38 38 0 76 q 130 0 76 0 l 1259 0 q 1351 38 1313 0 q 1389 130 1389 76 l 1389 738 q 1351 830 1389 792 q 1259 868 1313 868 m 1242 130 l 146 130 q 136 136 141 130 q 130 146 130 141 l 130 895 q 136 906 130 901 q 146 911 141 911 l 510 911 l 684 738 l 1242 738 q 1253 732 1248 738 q 1259 722 1259 727 l 1259 146 q 1253 136 1259 141 q 1242 130 1248 130 z "},"":{"ha":1345,"x_min":0,"x_max":1345,"o":"m 673 1194 q 336 1103 491 1194 q 91 857 182 1012 q 0 521 0 703 q 91 184 0 339 q 336 -61 182 30 q 673 -152 491 -152 q 1009 -61 854 -152 q 1255 184 1164 30 q 1345 521 1345 339 q 1255 857 1345 703 q 1009 1103 1164 1012 q 673 1194 854 1194 m 673 -22 q 401 52 526 -22 q 203 250 277 125 q 130 521 130 374 q 203 792 130 667 q 401 990 277 917 q 673 1063 526 1063 q 944 990 819 1063 q 1142 792 1069 917 q 1215 521 1215 667 q 1142 250 1215 374 q 944 52 1069 125 q 673 -22 819 -22 m 456 564 q 517 590 491 564 q 543 651 543 616 q 517 712 543 686 q 456 738 491 738 q 395 712 420 738 q 369 651 369 686 q 395 590 369 616 q 456 564 420 564 m 890 738 q 829 712 854 738 q 803 651 803 686 q 829 590 803 616 q 890 564 854 564 q 951 590 925 564 q 977 651 977 616 q 951 712 977 686 q 890 738 925 738 m 673 391 q 518 357 591 391 q 391 258 445 323 q 377 212 374 239 q 400 167 380 184 q 448 152 420 149 q 491 176 475 155 q 574 239 526 217 q 673 260 621 260 q 772 239 724 260 q 854 176 819 217 q 903 152 873 152 q 947 168 928 152 q 968 212 966 184 q 955 258 971 239 q 827 357 901 323 q 673 391 754 391 z "},"":{"ha":1345,"x_min":-24,"x_max":1370,"o":"m 1313 730 q 1171 974 1267 868 q 944 1137 1074 1080 q 673 1194 814 1194 q 464 1161 567 1194 q 172 970 290 1104 q 15 661 54 836 q 33 312 -24 486 q 175 68 79 174 q 401 -95 271 -38 q 673 -152 532 -152 q 882 -119 779 -152 q 1173 72 1055 -62 q 1331 381 1291 206 q 1313 730 1370 556 m 1109 203 l 968 187 l 849 350 l 917 556 l 1109 616 l 1215 515 q 1156 274 1213 388 q 1109 203 1142 247 m 1109 841 l 1082 697 l 890 637 l 716 765 l 716 966 l 844 1036 q 1109 841 1009 982 m 502 1036 l 629 966 l 629 765 l 456 637 l 263 697 l 236 841 q 502 1036 339 982 m 377 187 l 233 203 q 130 515 133 345 l 236 616 l 429 556 l 496 353 l 377 187 m 507 5 l 448 136 l 564 301 l 779 301 l 898 136 l 838 5 l 833 3 q 507 5 673 -49 z "},"":{"ha":1563,"x_min":-8,"x_max":1571,"o":"m 1259 1215 l 304 1215 q 277 1202 285 1215 l 5 800 q 8 762 -8 781 l 757 -163 q 781 -174 765 -174 q 806 -163 798 -174 l 1554 762 q 1557 800 1571 781 l 1286 1202 q 1259 1215 1275 1215 m 1207 1085 l 1378 825 l 1194 825 l 1053 1085 l 1207 1085 m 659 1085 l 903 1085 l 1044 825 l 518 825 l 659 1085 m 355 1085 l 510 1085 l 369 825 l 184 825 l 355 1085 m 239 694 l 380 694 l 564 260 l 239 694 m 518 694 l 1044 694 l 781 35 l 518 694 m 998 260 l 1183 694 l 1324 694 l 998 260 z "},"":{"ha":1563,"x_min":0,"x_max":1563,"o":"m 1511 426 l 1112 1039 q 1042 1105 1085 1082 q 949 1128 998 1128 l 152 1128 q 45 1084 90 1128 q 0 977 0 1039 l 0 955 q 64 802 0 865 q 217 738 127 738 l 749 738 l 700 608 l 391 608 q 222 537 293 608 q 152 369 152 467 q 197 262 152 307 q 304 217 241 217 l 662 217 q 684 212 673 217 l 955 109 l 955 -87 l 1563 -87 l 1563 250 q 1511 426 1563 347 m 1432 43 l 1085 43 l 1085 109 q 1062 182 1085 149 q 1001 228 1039 214 l 732 334 q 662 347 697 347 l 304 347 q 289 354 296 347 q 282 369 282 361 q 313 446 282 415 q 391 477 345 477 l 700 477 q 773 500 741 477 q 822 562 806 524 l 887 735 q 876 826 906 784 q 795 868 846 868 l 217 868 q 156 894 182 868 q 130 955 130 920 l 130 977 q 137 991 130 985 q 152 998 144 998 l 949 998 q 1004 968 985 998 l 1400 355 q 1432 250 1432 307 l 1432 43 z "},"":{"ha":1215,"x_min":-11,"x_max":1215,"o":"m 1012 909 l 1012 939 q 979 1044 1012 998 q 894 1111 947 1090 q 787 1118 841 1131 q 688 1204 751 1183 q 560 1202 624 1226 q 467 1115 496 1177 q 358 1108 410 1128 q 274 1042 307 1088 q 241 939 241 996 l 241 597 q 156 606 201 613 q 73 572 111 600 q 3 454 14 529 q 35 320 -8 380 l 358 -138 q 431 -174 385 -174 l 1034 -174 q 1089 -155 1066 -174 q 1120 -106 1112 -136 l 1202 250 q 1215 372 1215 309 l 1215 730 q 1153 867 1215 811 q 1012 909 1090 922 m 1085 372 q 1074 279 1085 326 l 1001 -43 l 453 -43 l 141 396 q 134 446 122 420 q 174 477 146 472 q 220 456 201 483 l 293 353 q 342 338 312 328 q 372 380 372 347 l 372 939 q 396 983 372 971 q 446 982 420 996 q 472 936 472 968 l 472 521 q 484 490 472 502 q 515 477 496 477 l 534 477 q 564 490 551 477 q 578 521 578 502 l 578 1034 q 602 1078 578 1066 q 651 1077 627 1090 q 675 1031 675 1063 l 675 521 q 689 490 675 502 q 719 477 703 477 l 738 477 q 769 490 757 477 q 781 521 781 502 l 781 941 q 806 986 781 974 q 856 985 830 998 q 882 939 882 971 l 882 521 q 894 490 882 502 q 925 477 906 477 l 941 477 q 972 490 960 477 q 985 521 985 502 l 985 727 q 1010 774 985 762 q 1061 774 1036 787 q 1085 730 1085 762 l 1085 372 z "},"":{"ha":1215,"x_min":-16,"x_max":1215,"o":"m 982 694 q 907 761 955 738 q 806 776 860 784 l 806 1015 q 747 1157 806 1099 q 608 1215 689 1215 q 468 1157 526 1215 q 410 1015 410 1099 l 434 760 l 382 974 q 277 1085 353 1053 q 125 1088 201 1118 q 16 982 49 1058 q 14 827 -16 906 l 165 434 q 80 317 100 382 q 98 184 60 252 l 247 -81 q 313 -149 271 -125 q 404 -174 355 -174 l 960 -174 q 1073 -134 1023 -174 q 1137 -33 1123 -95 l 1210 290 q 1215 331 1215 309 l 1215 521 q 1181 627 1215 581 q 1093 693 1147 673 q 982 694 1039 713 m 1085 331 q 1082 320 1085 326 l 1009 -3 q 993 -33 1006 -22 q 960 -43 979 -43 l 404 -43 q 361 -19 374 -43 l 212 247 q 205 285 201 266 q 222 315 209 304 l 296 374 q 311 396 307 382 q 309 423 315 410 l 136 873 q 145 945 119 917 q 209 971 171 974 q 263 928 247 968 l 423 505 q 464 477 434 477 l 496 477 q 526 490 513 477 q 540 521 540 502 l 540 1015 q 574 1076 540 1058 q 642 1076 608 1093 q 675 1015 675 1058 l 675 521 q 689 490 675 502 q 719 477 703 477 l 738 477 q 769 490 757 477 q 781 521 781 502 l 781 597 q 806 642 781 629 q 856 642 830 654 q 882 597 882 629 l 882 521 q 894 490 882 502 q 925 477 906 477 l 941 477 q 972 490 960 477 q 985 521 985 502 q 1010 566 985 553 q 1061 566 1036 578 q 1085 521 1085 553 l 1085 331 z "},"":{"ha":1215,"x_min":0,"x_max":1218,"o":"m 513 -174 q 671 -107 605 -174 q 738 52 738 -41 l 738 149 q 798 171 770 155 q 886 176 841 165 q 968 214 930 187 q 1146 289 1077 217 q 1215 486 1215 361 l 1215 543 q 1194 673 1215 605 q 1147 776 1180 711 q 1118 836 1126 819 q 1107 887 1107 865 l 1107 895 q 1128 955 1128 920 l 1128 1128 q 1105 1190 1128 1164 q 1050 1215 1082 1215 l 426 1215 q 370 1190 393 1215 q 347 1128 347 1164 l 347 955 q 369 895 347 920 l 369 887 q 354 856 369 873 q 304 806 339 838 l 304 806 q 214 735 252 760 q 155 703 195 724 q 49 637 79 665 q 0 529 0 594 q 64 347 0 415 q 225 279 127 279 q 288 285 258 279 l 288 52 q 354 -107 288 -41 q 513 -174 420 -174 m 513 -43 q 446 -15 475 -43 q 418 52 418 14 l 418 483 q 355 456 396 483 q 298 426 320 434 q 225 410 263 410 q 152 445 176 410 q 130 529 130 477 q 155 556 130 540 q 209 586 168 564 q 282 624 260 610 q 391 708 331 654 q 461 779 437 749 q 499 868 494 822 l 977 868 q 996 789 979 833 q 1031 719 1006 765 q 1069 635 1058 662 q 1085 543 1085 586 l 1085 486 q 1042 369 1085 404 q 920 347 998 334 q 856 302 901 315 q 773 312 811 290 q 689 273 738 274 q 608 298 640 271 l 608 52 q 579 -15 608 14 q 513 -43 551 -43 m 890 1042 q 909 1088 890 1069 q 955 1107 928 1107 q 1001 1088 982 1107 q 1020 1042 1020 1069 q 1001 996 1020 1015 q 955 977 982 977 q 909 996 928 977 q 890 1042 890 1015 z "},"":{"ha":1389,"x_min":0,"x_max":1389,"o":"m 0 616 q 66 457 0 524 q 225 391 133 391 l 323 391 q 345 331 328 358 q 350 243 339 288 q 388 160 361 198 q 463 -18 391 52 q 659 -87 534 -87 l 716 -87 q 846 -65 779 -87 q 949 -19 884 -52 q 1009 11 993 3 q 1061 22 1039 22 l 1069 22 q 1128 0 1093 0 l 1302 0 q 1363 23 1337 0 q 1389 79 1389 46 l 1389 703 q 1363 758 1389 735 q 1302 781 1337 781 l 1128 781 q 1069 760 1093 781 l 1061 760 q 1029 774 1047 760 q 979 825 1012 789 l 979 825 q 909 914 933 876 q 876 974 898 933 q 811 1080 838 1050 q 703 1128 768 1128 q 521 1065 589 1128 q 453 903 453 1001 q 458 841 453 871 l 225 841 q 66 774 133 841 q 0 616 0 708 m 130 616 q 159 682 130 654 q 225 711 187 711 l 656 711 q 629 773 656 732 q 600 830 608 808 q 583 903 583 865 q 618 977 583 952 q 703 998 651 998 q 730 974 713 998 q 760 920 738 960 q 798 846 784 868 q 882 738 827 798 q 952 667 922 692 q 1042 629 996 635 l 1042 152 q 963 133 1006 149 q 892 98 939 122 q 808 60 836 71 q 716 43 760 43 l 659 43 q 543 87 578 43 q 521 209 507 130 q 476 273 488 228 q 486 355 464 317 q 446 439 448 391 q 472 521 445 488 l 225 521 q 159 549 187 521 q 130 616 130 578 m 1215 239 q 1261 220 1242 239 q 1280 174 1280 201 q 1261 127 1280 146 q 1215 109 1242 109 q 1169 127 1188 109 q 1150 174 1150 146 q 1169 220 1150 201 q 1215 239 1188 239 z "},"":{"ha":1389,"x_min":-3,"x_max":1389,"o":"m 1164 841 l 930 841 q 936 903 936 871 q 868 1065 936 1001 q 686 1128 800 1128 q 578 1080 621 1128 q 513 974 551 1050 q 480 914 491 933 q 410 825 456 876 l 410 825 q 359 774 377 789 q 328 760 342 760 l 320 760 q 260 781 296 781 l 87 781 q 26 758 52 781 q 0 703 0 735 l 0 79 q 26 23 0 46 q 87 0 52 0 l 260 0 q 320 22 296 0 l 328 22 q 380 11 350 22 q 439 -19 396 3 q 543 -65 505 -52 q 673 -87 610 -87 l 730 -87 q 926 -18 854 -87 q 1001 160 998 52 q 1039 243 1028 198 q 1044 331 1050 288 q 1066 391 1061 358 l 1164 391 q 1322 457 1256 391 q 1389 616 1389 524 q 1322 774 1389 708 q 1164 841 1256 841 m 1164 521 l 917 521 q 943 439 944 488 q 903 355 941 391 q 913 273 925 317 q 868 209 901 228 q 846 87 882 130 q 730 43 811 43 l 673 43 q 581 60 629 43 q 496 98 553 71 q 426 133 450 122 q 347 152 382 149 l 347 629 q 437 667 393 635 q 507 738 467 692 q 591 846 562 798 q 629 920 605 868 q 659 974 651 960 q 686 998 675 998 q 770 977 738 998 q 806 903 806 952 q 789 830 806 865 q 760 773 781 808 q 732 711 732 732 l 1164 711 q 1230 682 1202 711 q 1259 616 1259 654 q 1230 549 1259 578 q 1164 521 1202 521 m 239 174 q 220 127 239 146 q 174 109 201 109 q 127 127 146 109 q 109 174 109 146 q 127 220 109 201 q 174 239 146 239 q 220 220 201 239 q 239 174 239 201 z "},"":{"ha":1215,"x_min":0,"x_max":1218,"o":"m 288 990 l 288 757 q 225 762 258 762 q 64 694 127 762 q 0 513 0 627 q 49 404 0 448 q 155 339 79 377 q 214 307 195 317 q 304 236 252 282 l 304 236 q 354 186 339 203 q 369 155 369 168 l 369 146 q 347 87 347 122 l 347 -87 q 370 -148 347 -122 q 426 -174 393 -174 l 1050 -174 q 1105 -148 1082 -174 q 1128 -87 1128 -122 l 1128 87 q 1107 146 1128 122 l 1107 155 q 1118 206 1107 176 q 1147 266 1126 222 q 1194 369 1180 331 q 1215 499 1215 437 l 1215 556 q 1146 753 1215 681 q 968 827 1077 825 q 886 865 930 854 q 798 871 841 876 q 738 892 770 887 l 738 990 q 671 1149 738 1082 q 513 1215 605 1215 q 354 1149 420 1215 q 288 990 288 1082 m 608 990 l 608 743 q 689 769 640 770 q 773 730 738 768 q 856 739 811 751 q 920 694 901 727 q 1042 673 998 708 q 1085 556 1085 637 l 1085 499 q 1069 407 1085 456 q 1031 323 1058 380 q 996 252 1006 277 q 977 174 979 209 l 499 174 q 461 263 494 220 q 391 334 437 293 q 282 418 331 388 q 209 456 260 431 q 155 486 168 477 q 130 513 130 502 q 152 597 130 564 q 225 632 176 632 q 298 616 263 632 q 355 586 320 608 q 418 559 396 559 l 418 990 q 446 1057 418 1028 q 513 1085 475 1085 q 579 1057 551 1085 q 608 990 608 1028 m 955 65 q 1001 46 982 65 q 1020 0 1020 27 q 1001 -46 1020 -27 q 955 -65 982 -65 q 909 -46 928 -65 q 890 0 890 -27 q 909 46 890 27 q 955 65 928 65 z "},"":{"ha":1215,"x_min":-11,"x_max":1218,"o":"m 971 730 q 872 792 933 779 q 754 781 811 806 q 684 826 724 811 q 602 833 643 841 l 602 1034 q 549 1162 602 1109 q 422 1215 496 1215 q 294 1162 347 1215 q 241 1034 241 1109 l 241 597 q 156 606 201 613 q 73 572 111 600 q 3 454 14 529 q 35 320 -8 380 l 331 -98 q 396 -153 358 -133 q 477 -174 434 -174 l 960 -174 q 1073 -134 1023 -174 q 1137 -33 1123 -95 l 1210 290 q 1215 331 1215 309 l 1215 559 q 1179 669 1215 621 q 1085 734 1142 716 q 971 730 1028 751 m 220 456 l 293 353 q 342 338 312 328 q 372 380 372 347 l 372 1034 q 396 1078 372 1066 q 446 1078 420 1090 q 472 1034 472 1066 l 472 559 q 484 528 472 540 q 515 515 496 515 l 534 515 q 564 528 551 515 q 578 559 578 540 l 578 654 q 602 699 578 686 q 651 699 627 711 q 675 654 675 686 l 675 559 q 689 528 675 540 q 719 515 703 515 l 738 515 q 769 528 757 515 q 781 559 781 540 l 781 616 q 806 661 781 648 q 856 661 830 673 q 882 616 882 648 l 882 559 q 894 528 882 540 q 925 515 906 515 l 941 515 q 972 528 960 515 q 985 559 985 540 q 1010 604 985 591 q 1061 604 1036 616 q 1085 559 1085 591 l 1085 331 l 1082 320 l 1009 -3 q 993 -33 1006 -22 q 960 -43 979 -43 l 477 -43 q 437 -22 453 -43 l 141 396 q 134 446 122 420 q 174 477 146 472 q 220 456 201 483 m 477 130 l 477 391 q 488 422 477 410 q 515 434 499 434 l 532 434 q 559 422 548 434 q 570 391 570 410 l 570 130 q 559 99 570 111 q 532 87 548 87 l 515 87 q 488 99 499 87 q 477 130 477 111 m 684 130 l 684 391 q 694 422 684 410 q 722 434 705 434 l 738 434 q 764 422 751 434 q 776 391 776 410 l 776 130 q 764 99 776 111 q 738 87 751 87 l 722 87 q 694 99 705 87 q 684 130 684 111 m 887 130 l 887 391 q 898 422 887 410 q 925 434 909 434 l 941 434 q 968 422 958 434 q 979 391 979 410 l 979 130 q 968 99 979 111 q 941 87 958 87 l 925 87 q 898 99 909 87 q 887 130 887 111 z "},"":{"ha":1389,"x_min":0,"x_max":1392,"o":"m 1109 1001 q 986 1086 1063 1069 q 841 1066 909 1104 q 694 1128 781 1128 q 548 1066 608 1128 q 415 1089 486 1101 q 297 1025 345 1077 q 247 901 250 974 q 127 892 184 914 q 35 821 71 871 q 0 708 0 770 l 0 553 q 28 425 0 486 q 106 320 57 363 l 372 90 q 378 76 377 84 q 380 38 380 68 l 380 0 q 406 -61 380 -35 q 467 -87 431 -87 l 1150 -87 q 1211 -61 1185 -87 q 1237 0 1237 -35 l 1237 27 q 1237 76 1237 65 q 1248 114 1240 98 l 1364 385 q 1389 507 1389 442 l 1389 817 q 1347 940 1389 887 q 1240 1010 1305 993 q 1109 1001 1175 1028 m 1259 507 q 1245 437 1259 469 l 1128 165 q 1107 62 1107 117 l 1107 43 l 510 43 l 510 71 q 456 187 510 141 l 193 418 q 130 553 130 472 l 130 708 q 165 766 130 749 q 236 766 201 784 q 271 705 271 749 l 271 594 q 285 562 271 572 l 304 545 q 351 537 326 526 q 377 578 377 548 l 377 892 q 412 952 377 936 q 483 952 448 968 q 518 890 518 936 l 518 819 q 530 788 518 800 q 562 776 543 776 l 581 776 q 612 788 600 776 q 624 819 624 800 l 624 930 q 659 990 624 974 q 730 989 694 1006 q 765 928 765 971 l 765 819 q 777 788 765 800 q 808 776 789 776 l 827 776 q 859 788 846 776 q 871 819 871 800 l 871 892 q 906 952 871 936 q 977 952 941 968 q 1012 890 1012 936 l 1012 819 q 1024 788 1012 800 q 1055 776 1036 776 l 1074 776 q 1105 788 1093 776 q 1118 819 1118 800 q 1153 878 1118 860 q 1223 878 1188 895 q 1259 817 1259 860 l 1259 507 z "},"":{"ha":1389,"x_min":0,"x_max":1389,"o":"m 694 -87 l 884 -87 q 925 -81 906 -87 l 1248 -8 q 1350 56 1310 5 q 1389 168 1389 106 l 1389 724 q 1364 815 1389 773 q 1297 882 1340 857 l 1031 1031 q 898 1048 963 1069 q 781 963 833 1028 l 388 1115 q 233 1112 309 1145 q 127 1004 157 1080 q 130 852 98 928 q 241 746 163 776 l 456 694 l 201 719 q 58 661 117 719 q 0 521 0 602 q 58 381 0 439 q 201 323 117 323 l 439 323 q 454 221 431 269 q 521 146 477 174 q 522 35 502 90 q 589 -53 543 -19 q 694 -87 635 -87 m 694 43 q 650 68 662 43 q 650 118 637 92 q 694 144 662 144 q 726 156 713 144 q 738 187 738 168 l 738 203 q 726 235 738 222 q 694 247 713 247 l 618 247 q 574 273 586 247 q 574 323 562 298 q 618 347 586 347 l 694 347 q 726 359 713 347 q 738 391 738 372 l 738 410 q 726 439 738 426 q 694 453 713 453 l 201 453 q 140 487 157 453 q 140 555 122 521 q 201 589 157 589 l 694 589 q 726 602 713 589 q 738 632 738 616 l 738 665 q 711 705 738 694 l 288 865 q 244 920 247 882 q 270 983 241 958 q 342 993 298 1009 l 792 819 q 819 818 806 814 q 841 833 833 822 l 901 906 q 930 924 911 920 q 968 917 949 928 l 1234 768 q 1259 724 1259 754 l 1259 168 q 1248 136 1259 149 q 1218 119 1237 122 l 895 46 l 884 43 l 694 43 z "},"":{"ha":1389,"x_min":-3,"x_max":1400,"o":"m 57 179 l 407 -149 q 467 -174 431 -174 l 1112 -174 q 1162 -156 1139 -174 q 1194 -111 1185 -138 l 1280 179 q 1294 269 1294 222 l 1294 369 q 1297 401 1294 385 l 1383 762 q 1377 872 1397 819 q 1310 956 1356 925 q 1207 987 1264 987 q 1161 1080 1196 1039 q 1072 1134 1126 1120 q 933 1114 998 1153 q 852 1001 868 1074 l 806 716 l 746 1074 q 666 1187 730 1147 q 529 1210 602 1226 q 430 1150 469 1196 q 388 1044 391 1104 q 286 1012 331 1044 q 221 928 241 979 q 214 822 201 876 l 298 453 q 170 494 241 499 q 47 435 98 488 q 0 307 -3 382 q 57 179 3 231 m 144 347 l 144 347 q 180 363 160 363 q 217 350 201 363 l 361 214 q 408 206 382 195 q 434 247 434 217 l 434 434 l 434 445 l 339 852 q 355 901 334 882 q 406 913 377 920 q 442 873 434 906 l 524 510 q 538 487 526 496 q 567 477 551 477 l 589 477 q 623 494 610 477 q 632 532 635 510 l 518 1023 q 533 1072 510 1053 q 583 1084 556 1090 q 618 1044 610 1077 l 741 510 q 757 487 746 496 q 784 477 768 477 l 819 477 q 846 487 836 477 q 863 510 857 496 l 977 971 q 1013 1008 985 1001 q 1063 996 1042 1015 q 1077 944 1085 977 l 974 532 q 982 494 968 510 q 1015 477 996 477 l 1042 477 q 1069 487 1058 477 q 1085 510 1080 496 l 1158 817 q 1192 856 1164 849 q 1242 844 1221 863 q 1256 795 1264 825 l 1172 431 q 1164 369 1164 401 l 1164 269 q 1156 217 1164 241 l 1080 -43 l 483 -43 l 146 274 q 130 311 130 290 q 144 347 130 331 z "},"":{"ha":1736,"x_min":0,"x_max":1736,"o":"m 1408 868 l 1280 998 q 1172 1042 1234 1042 l 556 1042 q 450 998 494 1042 l 320 868 l 0 868 l 0 174 l 174 174 q 235 199 209 174 q 260 260 260 225 l 285 260 l 515 54 q 656 0 578 3 q 800 43 735 -3 q 911 0 852 0 q 1044 65 993 0 q 1138 58 1090 46 q 1218 111 1185 71 l 1289 198 q 1318 260 1310 225 l 1476 260 q 1501 199 1476 225 q 1563 174 1527 174 l 1736 174 l 1736 868 l 1408 868 m 130 260 q 99 274 111 260 q 87 305 87 288 q 99 335 87 323 q 130 347 111 347 q 161 335 149 347 q 174 305 174 323 q 161 274 174 288 q 130 260 149 260 m 1188 279 l 1118 193 q 1103 186 1112 187 q 1088 190 1093 184 l 1023 241 l 941 144 q 916 130 930 130 q 892 136 901 130 l 792 222 l 749 171 q 677 130 722 136 q 600 152 632 125 l 336 391 l 260 391 l 260 738 l 374 738 l 543 906 l 556 911 l 711 911 l 605 817 q 543 680 545 760 q 594 540 540 600 q 659 496 618 515 q 757 477 708 475 q 868 529 819 483 l 892 548 l 1185 312 q 1192 297 1191 307 q 1188 279 1194 288 m 1476 391 l 1289 391 q 1267 412 1278 401 l 987 637 l 1023 670 q 1036 699 1036 681 q 1025 730 1036 716 l 996 762 q 966 776 985 776 q 933 765 947 776 l 784 627 q 736 609 765 610 q 690 628 708 608 q 673 675 673 648 q 694 719 673 703 l 871 882 q 944 911 903 911 l 1172 911 q 1188 906 1180 911 l 1354 738 l 1476 738 l 1476 391 m 1606 260 q 1575 274 1587 260 q 1563 305 1563 288 q 1575 335 1563 323 q 1606 347 1587 347 q 1637 335 1625 347 q 1649 305 1649 323 q 1637 274 1649 288 q 1606 260 1625 260 z "},"":{"ha":1563,"x_min":0,"x_max":1563,"o":"m 1538 575 l 1253 985 q 1208 1027 1237 1012 q 1147 1042 1180 1042 l 415 1042 q 354 1027 382 1042 q 309 985 326 1012 l 24 575 q 0 502 0 543 l 0 130 q 38 38 0 76 q 130 0 76 0 l 1432 0 q 1525 38 1487 0 q 1563 130 1563 76 l 1563 502 q 1538 575 1563 543 m 415 911 l 1147 911 l 1359 608 l 203 608 l 415 911 m 1432 130 l 130 130 l 130 477 l 1432 477 l 1432 130 m 1345 304 q 1320 243 1345 269 q 1259 217 1294 217 q 1198 243 1223 217 q 1172 304 1172 269 q 1198 365 1172 339 q 1259 391 1223 391 q 1320 365 1294 391 q 1345 304 1345 339 m 1085 304 q 1059 243 1085 269 q 998 217 1034 217 q 937 243 963 217 q 911 304 911 269 q 937 365 911 339 q 998 391 963 391 q 1059 365 1034 391 q 1085 304 1085 339 z "},"":{"ha":1389,"x_min":-16,"x_max":1405,"o":"m 1242 1042 q 1066 1123 1166 1107 q 867 1107 966 1139 q 694 1001 768 1074 q 522 1107 621 1074 q 323 1123 423 1139 q 146 1042 222 1107 q 16 841 49 958 q 14 625 -16 735 q 117 439 43 515 l 591 -43 q 694 -87 635 -87 q 798 -43 754 -87 l 1272 439 q 1375 625 1345 515 q 1375 841 1405 735 q 1242 1042 1340 958 m 1180 532 l 703 49 q 686 49 694 38 l 209 532 q 140 658 160 583 q 141 806 119 732 q 231 941 163 884 q 416 998 309 1006 q 600 911 524 990 l 694 817 l 789 911 q 972 998 865 990 q 1158 941 1080 1006 q 1248 806 1226 884 q 1249 658 1270 732 q 1180 532 1229 583 z "},"":{"ha":1215,"x_min":0,"x_max":1215,"o":"m 347 553 l 347 662 q 357 685 347 675 q 380 694 366 694 l 488 694 q 511 685 502 694 q 521 662 521 675 l 521 553 q 511 530 521 540 q 488 521 502 521 l 380 521 q 357 530 366 521 q 347 553 347 540 m 727 521 l 836 521 q 859 530 849 521 q 868 553 868 540 l 868 662 q 859 685 868 675 q 836 694 849 694 l 727 694 q 704 685 713 694 q 694 662 694 675 l 694 553 q 704 530 694 540 q 727 521 713 521 m 521 293 l 521 401 q 511 425 521 415 q 488 434 502 434 l 380 434 q 357 425 366 434 q 347 401 347 415 l 347 293 q 357 270 347 279 q 380 260 366 260 l 488 260 q 511 270 502 260 q 521 293 521 279 m 727 260 l 836 260 q 859 270 849 260 q 868 293 868 279 l 868 401 q 859 425 868 415 q 836 434 849 434 l 727 434 q 704 425 713 434 q 694 401 694 415 l 694 293 q 704 270 694 279 q 727 260 713 260 m 1215 -76 l 1215 -174 l 0 -174 l 0 -76 q 9 -53 0 -62 q 33 -43 19 -43 l 87 -43 l 87 985 q 106 1025 87 1009 q 152 1042 125 1042 l 391 1042 l 391 1150 q 410 1196 391 1177 q 456 1215 429 1215 l 760 1215 q 806 1196 787 1215 q 825 1150 825 1177 l 825 1042 l 1066 1042 q 1111 1025 1090 1042 q 1131 985 1131 1009 l 1131 -43 l 1183 -43 q 1206 -53 1196 -43 q 1215 -76 1215 -62 m 217 -41 l 521 -41 l 521 141 q 530 164 521 155 q 553 174 540 174 l 662 174 q 685 164 675 174 q 694 141 694 155 l 694 -41 l 1001 -41 l 1001 911 l 825 911 l 825 846 q 806 800 825 819 q 760 781 787 781 l 456 781 q 410 800 429 781 q 391 846 391 819 l 391 911 l 217 911 l 217 -41 m 722 1042 l 651 1042 l 651 1112 q 646 1123 651 1118 q 635 1128 640 1128 l 581 1128 q 570 1123 575 1128 q 564 1112 564 1118 l 564 1042 l 494 1042 q 483 1036 488 1042 q 477 1025 477 1031 l 477 971 q 483 960 477 966 q 494 955 488 955 l 564 955 l 564 884 q 570 873 564 879 q 581 868 575 868 l 635 868 q 646 873 640 868 q 651 884 651 879 l 651 955 l 722 955 q 732 960 727 955 q 738 971 738 966 l 738 1025 q 732 1036 738 1031 q 722 1042 727 1042 z "},"":{"ha":1042,"x_min":0,"x_max":1042,"o":"m 998 1085 l 1009 1085 q 1032 1095 1023 1085 q 1042 1118 1042 1104 l 1042 1183 q 1032 1206 1042 1196 q 1009 1215 1023 1215 l 33 1215 q 9 1206 19 1215 q 0 1183 0 1196 l 0 1118 q 9 1095 0 1104 q 33 1085 19 1085 l 43 1085 q 109 765 43 914 q 307 521 179 602 q 109 277 179 439 q 43 -43 43 127 l 33 -43 q 9 -53 19 -43 q 0 -76 0 -62 l 0 -141 q 9 -164 0 -155 q 33 -174 19 -174 l 1009 -174 q 1032 -164 1023 -174 q 1042 -141 1042 -155 l 1042 -76 q 1032 -53 1042 -62 q 1009 -43 1023 -43 l 998 -43 q 933 277 998 127 q 735 521 863 439 q 933 765 863 602 q 998 1085 998 914 m 174 1085 l 868 1085 q 822 836 868 949 q 696 654 776 722 q 521 586 616 586 q 346 654 426 586 q 220 836 266 722 q 174 1085 174 949 m 868 -43 l 174 -43 q 220 206 174 92 q 346 388 266 320 q 521 456 426 456 q 696 388 616 456 q 822 206 776 320 q 868 -43 868 92 z "},"":{"ha":1042,"x_min":0,"x_max":1042,"o":"m 0 1085 l 0 -43 q 38 -136 0 -98 q 130 -174 76 -174 l 911 -174 q 1004 -136 966 -174 q 1042 -43 1042 -98 l 1042 1085 q 1004 1177 1042 1139 q 911 1215 966 1215 l 130 1215 q 38 1177 76 1215 q 0 1085 0 1139 m 911 998 l 911 -27 q 906 -38 911 -33 q 895 -43 901 -43 l 146 -43 q 136 -38 141 -43 q 130 -27 130 -33 l 130 998 l 911 998 m 521 781 q 655 726 600 781 q 711 591 711 670 q 655 457 711 513 q 521 401 600 401 q 387 457 442 401 q 331 591 331 513 q 387 726 331 670 q 521 781 442 781 m 738 385 l 654 407 q 513 363 591 361 q 388 407 442 366 l 304 385 q 241 345 266 374 q 217 274 217 315 l 217 231 q 233 190 217 206 q 274 174 250 174 l 768 174 q 808 190 792 174 q 825 231 825 206 l 825 274 q 800 345 825 315 q 738 385 776 374 z "},"":{"ha":1389,"x_min":0,"x_max":1389,"o":"m 1096 521 l 814 521 q 791 530 800 521 q 781 553 781 540 l 781 597 q 791 620 781 610 q 814 629 800 629 l 1096 629 q 1119 620 1109 629 q 1128 597 1128 610 l 1128 553 q 1119 530 1128 540 q 1096 521 1109 521 m 1128 358 l 1128 401 q 1119 425 1128 415 q 1096 434 1109 434 l 814 434 q 791 425 800 434 q 781 401 781 415 l 781 358 q 791 335 781 345 q 814 326 800 326 l 1096 326 q 1119 335 1109 326 q 1128 358 1128 345 m 1389 911 l 1389 130 q 1351 38 1389 76 q 1259 0 1313 0 l 130 0 q 38 38 76 0 q 0 130 0 76 l 0 911 q 38 1004 0 966 q 130 1042 76 1042 l 1259 1042 q 1351 1004 1313 1042 q 1389 911 1389 966 m 1259 146 l 1259 825 l 130 825 l 130 146 q 136 136 130 141 q 146 130 141 130 l 1242 130 q 1253 136 1248 130 q 1259 146 1259 141 m 477 694 q 574 655 534 694 q 613 559 613 616 q 574 463 613 502 q 477 423 534 423 q 381 463 420 423 q 342 559 342 502 q 381 655 342 616 q 477 694 420 694 m 632 412 l 572 426 q 475 396 526 393 q 382 426 423 399 l 323 412 q 278 382 296 404 q 260 334 260 361 l 260 301 q 273 273 260 285 q 301 260 285 260 l 654 260 q 682 273 670 260 q 694 301 694 285 l 694 334 q 677 382 694 361 q 632 412 659 404 z "},"":{"ha":1389,"x_min":0,"x_max":1389,"o":"m 1259 1042 l 130 1042 q 38 1004 76 1042 q 0 911 0 966 l 0 130 q 38 38 0 76 q 130 0 76 0 l 1259 0 q 1351 38 1313 0 q 1389 130 1389 76 l 1389 911 q 1351 1004 1389 966 q 1259 1042 1313 1042 m 1242 130 l 146 130 q 136 136 141 130 q 130 146 130 141 l 130 895 q 136 906 130 901 q 146 911 141 911 l 1242 911 q 1253 906 1248 911 q 1259 895 1259 901 l 1259 146 q 1253 136 1259 141 q 1242 130 1248 130 m 347 803 q 270 772 301 803 q 239 694 239 741 q 270 617 239 648 q 347 586 301 586 q 425 617 393 586 q 456 694 456 648 q 425 772 456 741 q 347 803 393 803 m 260 260 l 1128 260 l 1128 477 l 890 716 q 868 724 882 724 q 846 716 854 724 l 521 391 l 412 499 q 391 507 404 507 q 369 499 377 507 l 260 391 l 260 260 z "},"":{"ha":1563,"x_min":0,"x_max":1563,"o":"m 1302 87 l 1302 43 q 1264 -49 1302 -11 q 1172 -87 1226 -87 l 130 -87 q 38 -49 76 -87 q 0 43 0 -11 l 0 738 q 38 830 0 792 q 130 868 76 868 l 174 868 l 174 738 l 146 738 q 136 732 141 738 q 130 722 130 727 l 130 60 q 136 49 130 54 q 146 43 141 43 l 1156 43 q 1166 49 1161 43 q 1172 60 1172 54 l 1172 87 l 1302 87 m 1416 998 l 407 998 q 396 993 401 998 q 391 982 391 987 l 391 320 q 396 309 391 315 q 407 304 401 304 l 1416 304 q 1427 309 1421 304 q 1432 320 1432 315 l 1432 982 q 1427 993 1432 987 q 1416 998 1421 998 m 1432 1128 q 1525 1090 1487 1128 q 1563 998 1563 1053 l 1563 304 q 1525 212 1563 250 q 1432 174 1487 174 l 391 174 q 298 212 336 174 q 260 304 260 250 l 260 998 q 298 1090 260 1053 q 391 1128 336 1128 l 1432 1128 m 716 825 q 685 747 716 779 q 608 716 654 716 q 530 747 562 716 q 499 825 499 779 q 530 902 499 871 q 608 933 562 933 q 685 902 654 933 q 716 825 716 871 m 521 564 l 629 673 q 651 681 637 681 q 673 673 665 681 l 781 564 l 1063 846 q 1085 854 1072 854 q 1107 846 1099 854 l 1302 651 l 1302 434 l 521 434 l 521 564 z "},"":{"ha":1563,"x_min":0,"x_max":1563,"o":"m 1432 1042 l 130 1042 q 38 1004 76 1042 q 0 911 0 966 l 0 130 q 38 38 0 76 q 130 0 76 0 l 1432 0 q 1525 38 1487 0 q 1563 130 1563 76 l 1563 911 q 1525 1004 1563 966 q 1432 1042 1487 1042 m 1454 130 q 1447 115 1454 122 q 1432 109 1440 109 l 130 109 q 115 115 122 109 q 109 130 109 122 l 109 911 q 115 926 109 920 q 130 933 122 933 l 1432 933 q 1447 926 1440 933 q 1454 911 1454 920 l 1454 130 m 461 483 l 461 559 q 452 582 461 572 q 429 591 442 591 l 353 591 q 330 582 339 591 q 320 559 320 572 l 320 483 q 330 460 320 469 q 353 450 339 450 l 429 450 q 452 460 442 450 q 461 483 461 469 m 722 483 l 722 559 q 712 582 722 572 q 689 591 703 591 l 613 591 q 590 582 600 591 q 581 559 581 572 l 581 483 q 590 460 581 469 q 613 450 600 450 l 689 450 q 712 460 703 450 q 722 483 722 469 m 982 483 l 982 559 q 972 582 982 572 q 949 591 963 591 l 873 591 q 850 582 860 591 q 841 559 841 572 l 841 483 q 850 460 841 469 q 873 450 860 450 l 949 450 q 972 460 963 450 q 982 483 982 469 m 1242 483 l 1242 559 q 1233 582 1242 572 q 1210 591 1223 591 l 1134 591 q 1111 582 1120 591 q 1101 559 1101 572 l 1101 483 q 1111 460 1101 469 q 1134 450 1120 450 l 1210 450 q 1233 460 1223 450 q 1242 483 1242 469 m 331 260 l 331 336 q 321 359 331 350 q 298 369 312 369 l 222 369 q 199 359 209 369 q 190 336 190 350 l 190 260 q 199 237 190 247 q 222 228 209 228 l 298 228 q 321 237 312 228 q 331 260 331 247 m 1373 260 l 1373 336 q 1363 359 1373 350 q 1340 369 1354 369 l 1264 369 q 1241 359 1251 369 q 1232 336 1232 350 l 1232 260 q 1241 237 1232 247 q 1264 228 1251 228 l 1340 228 q 1363 237 1354 228 q 1373 260 1373 247 m 331 705 l 331 781 q 321 804 331 795 q 298 814 312 814 l 222 814 q 199 804 209 814 q 190 781 190 795 l 190 705 q 199 682 190 692 q 222 673 209 673 l 298 673 q 321 682 312 673 q 331 705 331 692 m 591 705 l 591 781 q 582 804 591 795 q 559 814 572 814 l 483 814 q 460 804 469 814 q 450 781 450 795 l 450 705 q 460 682 450 692 q 483 673 469 673 l 559 673 q 582 682 572 673 q 591 705 591 692 m 852 705 l 852 781 q 842 804 852 795 q 819 814 833 814 l 743 814 q 720 804 730 814 q 711 781 711 795 l 711 705 q 720 682 711 692 q 743 673 730 673 l 819 673 q 842 682 833 673 q 852 705 852 692 m 1112 705 l 1112 781 q 1103 804 1112 795 q 1080 814 1093 814 l 1004 814 q 981 804 990 814 q 971 781 971 795 l 971 705 q 981 682 971 692 q 1004 673 990 673 l 1080 673 q 1103 682 1093 673 q 1112 705 1112 692 m 1373 705 l 1373 781 q 1363 804 1373 795 q 1340 814 1354 814 l 1264 814 q 1241 804 1251 814 q 1232 781 1232 795 l 1232 705 q 1241 682 1232 692 q 1264 673 1251 673 l 1340 673 q 1363 682 1354 673 q 1373 705 1373 692 m 1107 277 l 1107 320 q 1097 343 1107 334 q 1074 353 1088 353 l 488 353 q 465 343 475 353 q 456 320 456 334 l 456 277 q 465 254 456 263 q 488 244 475 244 l 1074 244 q 1097 254 1088 244 q 1107 277 1107 263 z "},"":{"ha":1389,"x_min":-11,"x_max":1400,"o":"m 1313 1139 q 1183 1211 1256 1196 q 1050 1191 1109 1226 q 987 1177 1028 1177 q 898 1183 960 1177 q 713 1191 781 1194 q 491 1139 597 1183 q 248 967 363 1082 q 76 722 133 852 q 24 502 33 618 q 33 317 22 434 q 38 228 38 255 q 24 165 38 187 q 4 33 -11 106 q 76 -98 19 -41 q 206 -170 133 -155 q 339 -149 279 -184 q 401 -136 361 -136 q 491 -141 429 -136 q 675 -149 608 -152 q 898 -98 792 -141 q 1141 75 1025 -41 q 1313 320 1256 190 q 1364 540 1356 423 q 1356 724 1367 608 q 1351 814 1351 787 q 1364 876 1351 854 q 1385 1009 1400 936 q 1313 1139 1370 1082 m 1253 941 q 1223 833 1226 898 q 1229 708 1221 795 q 1234 545 1237 602 q 1191 363 1226 448 q 1050 165 1145 260 q 852 24 955 71 q 670 -19 768 -11 q 507 -14 613 -22 q 382 -8 420 -5 q 274 -38 317 -11 q 203 -33 244 -54 q 141 30 163 -11 q 136 100 119 71 q 165 209 163 144 q 160 334 168 247 q 155 496 152 439 q 198 678 163 594 q 339 876 244 781 q 537 1017 434 971 q 719 1061 621 1053 q 882 1055 776 1063 q 1006 1050 968 1047 q 1115 1080 1072 1053 q 1185 1074 1145 1096 q 1248 1012 1226 1053 q 1253 941 1270 971 m 792 917 q 781 878 795 895 q 743 857 768 860 q 585 784 673 849 q 431 631 496 719 q 358 472 366 543 q 338 434 355 448 q 297 423 320 420 q 260 444 274 426 q 250 483 247 461 q 342 692 263 581 q 526 875 418 798 q 732 966 635 952 q 772 955 754 968 q 792 917 789 941 z "},"":{"ha":1389,"x_min":0,"x_max":1370,"o":"m 694 -152 q 1031 -61 876 -152 q 1276 184 1185 30 q 1367 521 1367 339 q 1276 857 1367 703 q 1031 1103 1185 1012 q 694 1194 876 1194 q 358 1103 513 1194 q 113 857 203 1012 q 22 521 22 703 q 113 184 22 339 q 358 -61 203 30 q 694 -152 513 -152 m 415 57 l 559 201 q 694 174 624 174 q 830 201 765 174 l 974 57 q 694 -22 846 -22 q 415 57 543 -22 m 911 521 q 848 368 911 431 q 694 304 784 304 q 541 368 605 304 q 477 521 477 431 q 541 674 477 610 q 694 738 605 738 q 848 674 784 738 q 911 521 911 610 m 1158 241 l 1015 385 q 1042 521 1042 450 q 1015 656 1042 591 l 1158 800 q 1237 521 1237 673 q 1158 241 1237 369 m 974 985 l 830 841 q 694 868 765 868 q 559 841 624 868 l 415 985 q 694 1063 543 1063 q 974 985 846 1063 m 231 800 l 374 656 q 347 521 347 591 q 374 385 347 450 l 231 241 q 152 521 152 369 q 231 800 152 673 z "},"":{"ha":1042,"x_min":0,"x_max":1001,"o":"m 738 54 l 738 -22 q 726 -60 738 -43 q 694 -84 713 -76 l 694 -109 q 675 -155 694 -136 q 629 -174 656 -174 l 412 -174 q 366 -155 385 -174 q 347 -109 347 -136 l 347 -84 q 316 -60 328 -76 q 304 -22 304 -43 l 304 54 q 313 77 304 68 q 336 87 323 87 l 705 87 q 728 77 719 87 q 738 54 738 68 m 347 738 q 399 860 347 808 q 521 911 450 911 q 552 924 540 911 q 564 955 564 936 q 552 986 564 974 q 521 998 540 998 q 336 922 412 998 q 260 738 260 846 q 273 707 260 719 q 304 694 285 694 q 335 707 323 694 q 347 738 347 719 m 521 1085 q 696 1039 616 1085 q 822 913 776 993 q 868 738 868 833 q 846 608 868 659 q 789 528 833 578 q 724 442 746 477 q 648 304 684 382 l 393 304 q 317 442 358 382 q 252 528 296 477 q 195 608 209 578 q 174 738 174 656 q 220 913 174 833 q 346 1039 266 993 q 521 1085 426 1085 m 521 1215 q 281 1152 391 1215 q 107 978 171 1088 q 43 738 43 868 q 73 559 43 629 q 152 445 95 515 q 220 353 195 391 q 290 214 260 290 q 312 184 296 195 q 350 174 328 174 l 692 174 q 730 184 713 174 q 751 214 746 195 q 822 353 781 290 q 890 445 846 391 q 968 559 947 515 q 998 738 998 629 q 935 978 998 868 q 761 1152 871 1088 q 521 1215 651 1215 z "},"":{"ha":1389,"x_min":0,"x_max":1389,"o":"m 1259 1128 l 130 1128 q 38 1090 76 1128 q 0 998 0 1053 l 0 43 q 38 -49 0 -11 q 130 -87 76 -87 l 1259 -87 q 1351 -49 1313 -87 q 1389 43 1389 -11 l 1389 998 q 1351 1090 1389 1053 q 1259 1128 1313 1128 m 1242 43 l 146 43 q 136 49 141 43 q 130 60 130 54 l 130 982 q 136 993 130 987 q 146 998 141 998 l 1242 998 q 1253 993 1248 998 q 1259 982 1259 987 l 1259 60 q 1253 49 1259 54 q 1242 43 1248 43 m 1128 293 l 1128 228 q 1119 205 1128 214 q 1096 195 1109 195 l 553 195 q 530 205 540 195 q 521 228 521 214 l 521 293 q 530 316 521 307 q 553 326 540 326 l 1096 326 q 1119 316 1109 326 q 1128 293 1128 307 m 1128 553 l 1128 488 q 1119 465 1128 475 q 1096 456 1109 456 l 553 456 q 530 465 540 456 q 521 488 521 475 l 521 553 q 530 576 521 567 q 553 586 540 586 l 1096 586 q 1119 576 1109 586 q 1128 553 1128 567 m 1128 814 l 1128 749 q 1119 726 1128 735 q 1096 716 1109 716 l 553 716 q 530 726 540 716 q 521 749 521 735 l 521 814 q 530 837 521 827 q 553 846 540 846 l 1096 846 q 1119 837 1109 846 q 1128 814 1128 827 m 445 781 q 416 712 445 741 q 347 684 388 684 q 278 712 307 684 q 250 781 250 741 q 278 850 250 822 q 347 879 307 879 q 416 850 388 879 q 445 781 445 822 m 445 521 q 416 452 445 480 q 347 423 388 423 q 278 452 307 423 q 250 521 250 480 q 278 590 250 562 q 347 618 307 618 q 416 590 388 618 q 445 521 445 562 m 445 260 q 416 191 445 220 q 347 163 388 163 q 278 191 307 163 q 250 260 250 220 q 278 330 250 301 q 347 358 307 358 q 416 330 388 358 q 445 260 445 301 z "},"":{"ha":1563,"x_min":-3,"x_max":1565,"o":"m 1381 1118 l 1036 963 l 562 1123 q 469 1118 515 1137 l 79 944 q 22 895 43 928 q 0 825 0 863 l 0 43 q 28 -37 0 -3 q 99 -83 57 -71 q 182 -76 141 -95 l 526 79 l 1001 -81 q 1093 -76 1047 -95 l 1484 98 q 1541 146 1519 114 q 1563 217 1563 179 l 1563 998 q 1534 1078 1563 1044 q 1463 1124 1506 1112 q 1381 1118 1421 1137 m 977 65 l 586 195 l 586 977 l 977 846 l 977 65 m 130 43 l 130 825 l 456 968 l 456 187 l 130 43 m 1432 217 l 1107 73 l 1107 854 l 1432 998 l 1432 217 z "},"":{"ha":1345,"x_min":0,"x_max":1345,"o":"m 673 1194 q 336 1103 491 1194 q 91 857 182 1012 q 0 521 0 703 q 91 184 0 339 q 336 -61 182 30 q 673 -152 491 -152 q 1009 -61 854 -152 q 1255 184 1164 30 q 1345 521 1345 339 q 1255 857 1345 703 q 1009 1103 1164 1012 q 673 1194 854 1194 m 673 -22 q 401 52 526 -22 q 203 250 277 125 q 130 521 130 374 q 203 792 130 667 q 401 990 277 917 q 673 1063 526 1063 q 944 990 819 1063 q 1142 792 1069 917 q 1215 521 1215 667 q 1142 250 1215 374 q 944 52 1069 125 q 673 -22 819 -22 m 456 564 q 517 590 491 564 q 543 651 543 616 q 517 712 543 686 q 456 738 491 738 q 395 712 420 738 q 369 651 369 686 q 395 590 369 616 q 456 564 420 564 m 890 738 q 829 712 854 738 q 803 651 803 686 q 829 590 803 616 q 890 564 854 564 q 951 590 925 564 q 977 651 977 616 q 951 712 977 686 q 890 738 925 738 m 911 347 l 434 347 q 388 328 407 347 q 369 282 369 309 q 388 236 369 255 q 434 217 407 217 l 911 217 q 958 236 939 217 q 977 282 977 255 q 958 328 977 309 q 911 347 939 347 z "},"":{"ha":1215,"x_min":0,"x_max":1215,"o":"m 293 445 q 270 454 279 445 q 260 477 260 464 l 260 564 q 270 587 260 578 q 293 597 279 597 l 922 597 q 945 587 936 597 q 955 564 955 578 l 955 477 q 945 454 955 464 q 922 445 936 445 l 293 445 m 1215 998 l 1215 43 q 1177 -49 1215 -11 q 1085 -87 1139 -87 l 130 -87 q 38 -49 76 -87 q 0 43 0 -11 l 0 998 q 38 1090 0 1053 q 130 1128 76 1128 l 1085 1128 q 1177 1090 1139 1128 q 1215 998 1215 1053 m 1085 60 l 1085 982 q 1080 993 1085 987 q 1069 998 1074 998 l 146 998 q 136 993 141 998 q 130 982 130 987 l 130 60 q 136 49 130 54 q 146 43 141 43 l 1069 43 q 1080 49 1074 43 q 1085 60 1085 54 z "},"":{"ha":1736,"x_min":0,"x_max":1739,"o":"m 868 825 q 738 784 798 825 q 643 673 678 743 q 608 521 608 602 q 643 369 608 439 q 738 258 678 298 q 868 217 798 217 q 998 258 939 217 q 1093 369 1058 298 q 1128 521 1128 439 q 1093 673 1128 602 q 998 784 1058 743 q 868 825 939 825 m 998 380 q 966 347 998 347 l 784 347 q 754 380 754 347 l 754 401 q 784 434 754 434 l 825 434 l 825 543 l 827 570 l 819 562 q 798 552 808 551 q 776 564 787 553 l 760 581 q 762 624 738 602 l 822 678 q 860 694 838 694 l 892 694 q 925 662 925 694 l 925 434 l 966 434 q 998 401 998 434 l 998 380 m 1671 1042 l 65 1042 q 19 1023 38 1042 q 0 977 0 1004 l 0 68 q 19 22 0 41 q 65 3 38 3 l 1671 3 q 1717 22 1698 3 q 1736 68 1736 41 l 1736 977 q 1717 1023 1736 1004 q 1671 1042 1698 1042 m 1389 130 l 347 130 q 283 283 347 220 q 130 347 220 347 l 130 694 q 283 758 220 694 q 347 911 347 822 l 1389 911 q 1453 758 1389 822 q 1606 694 1516 694 l 1606 347 q 1453 283 1516 347 q 1389 130 1389 220 z "},"":{"ha":1389,"x_min":0,"x_max":1335,"o":"m 757 -174 q 1058 -106 917 -174 q 1297 84 1199 -38 q 1325 184 1335 130 q 1272 271 1316 239 q 1172 293 1229 304 q 962 315 1061 271 q 802 448 863 358 q 741 648 741 537 q 791 830 741 746 q 925 963 841 914 q 987 1044 977 990 q 970 1146 998 1099 q 882 1204 941 1194 q 757 1215 822 1215 q 410 1122 570 1215 q 156 869 250 1028 q 62 521 62 711 q 156 172 62 331 q 410 -80 250 14 q 757 -174 570 -174 m 757 1085 q 860 1077 808 1085 q 678 898 746 1012 q 610 648 610 784 q 693 374 610 496 q 911 195 776 252 q 1196 165 1047 138 q 1002 12 1118 68 q 757 -43 887 -43 q 475 33 605 -43 q 269 237 345 109 q 193 521 193 366 q 269 804 193 675 q 475 1009 345 933 q 757 1085 605 1085 z "},"":{"ha":1563,"x_min":0,"x_max":1565,"o":"m 1497 1042 l 304 1042 q 229 1017 263 1042 q 182 955 195 993 l 65 955 q 19 936 38 955 q 0 890 0 917 l 0 152 q 45 45 0 90 q 152 0 90 0 l 1497 0 q 1544 19 1525 0 q 1563 65 1563 38 l 1563 977 q 1544 1023 1563 1004 q 1497 1042 1525 1042 m 130 152 l 130 825 l 174 825 l 174 152 q 167 137 174 144 q 152 130 160 130 q 137 137 144 130 q 130 152 130 144 m 1432 130 l 301 130 l 304 152 l 304 911 l 1432 911 l 1432 130 m 467 456 l 836 456 q 859 465 849 456 q 868 488 868 475 l 868 749 q 859 772 868 762 q 836 781 849 781 l 467 781 q 444 772 453 781 q 434 749 434 762 l 434 488 q 444 465 434 475 q 467 456 453 456 m 543 673 l 760 673 l 760 564 l 543 564 l 543 673 m 434 293 l 434 358 q 444 381 434 372 q 467 391 453 391 l 836 391 q 859 381 849 391 q 868 358 868 372 l 868 293 q 859 270 868 279 q 836 260 849 260 l 467 260 q 444 270 453 260 q 434 293 434 279 m 955 293 l 955 358 q 964 381 955 372 q 987 391 974 391 l 1270 391 q 1293 381 1283 391 q 1302 358 1302 372 l 1302 293 q 1293 270 1302 279 q 1270 260 1283 260 l 987 260 q 964 270 974 260 q 955 293 955 279 m 955 684 l 955 749 q 964 772 955 762 q 987 781 974 781 l 1270 781 q 1293 772 1283 781 q 1302 749 1302 762 l 1302 684 q 1293 661 1302 670 q 1270 651 1283 651 l 987 651 q 964 661 974 651 q 955 684 955 670 m 955 488 l 955 553 q 964 576 955 567 q 987 586 974 586 l 1270 586 q 1293 576 1283 586 q 1302 553 1302 567 l 1302 488 q 1293 465 1302 475 q 1270 456 1283 456 l 987 456 q 964 465 974 456 q 955 488 955 475 z "},"":{"ha":1389,"x_min":0,"x_max":1389,"o":"m 1356 868 q 1379 878 1370 868 q 1389 901 1389 887 l 1389 1096 q 1379 1119 1389 1109 q 1356 1128 1370 1128 l 1161 1128 q 1138 1119 1147 1128 q 1128 1096 1128 1109 l 1128 1063 l 260 1063 l 260 1096 q 251 1119 260 1109 q 228 1128 241 1128 l 33 1128 q 9 1119 19 1128 q 0 1096 0 1109 l 0 901 q 9 878 0 887 q 33 868 19 868 l 65 868 l 65 174 l 33 174 q 9 164 19 174 q 0 141 0 155 l 0 -54 q 9 -77 0 -68 q 33 -87 19 -87 l 228 -87 q 251 -77 241 -87 q 260 -54 260 -68 l 260 -22 l 1128 -22 l 1128 -54 q 1138 -77 1128 -68 q 1161 -87 1147 -87 l 1356 -87 q 1379 -77 1370 -87 q 1389 -54 1389 -68 l 1389 141 q 1379 164 1389 155 q 1356 174 1370 174 l 1324 174 l 1324 868 l 1356 868 m 1215 1042 l 1302 1042 l 1302 955 l 1215 955 l 1215 1042 m 87 1042 l 174 1042 l 174 955 l 87 955 l 87 1042 m 174 0 l 87 0 l 87 87 l 174 87 l 174 0 m 1302 0 l 1215 0 l 1215 87 l 1302 87 l 1302 0 m 1194 174 l 1161 174 q 1138 164 1147 174 q 1128 141 1128 155 l 1128 109 l 260 109 l 260 141 q 251 164 260 155 q 228 174 241 174 l 195 174 l 195 868 l 228 868 q 251 878 241 868 q 260 901 260 887 l 260 933 l 1128 933 l 1128 901 q 1138 878 1128 887 q 1161 868 1147 868 l 1194 868 l 1194 174 m 1096 694 l 868 694 l 868 836 q 859 859 868 849 q 836 868 849 868 l 293 868 q 270 859 279 868 q 260 836 260 849 l 260 380 q 270 357 260 366 q 293 347 279 347 l 521 347 l 521 206 q 530 183 521 193 q 553 174 540 174 l 1096 174 q 1119 183 1109 174 q 1128 206 1128 193 l 1128 662 q 1119 685 1128 675 q 1096 694 1109 694 m 369 760 l 760 760 l 760 456 l 369 456 l 369 760 m 1020 282 l 629 282 l 629 347 l 836 347 q 859 357 849 347 q 868 380 868 366 l 868 586 l 1020 586 l 1020 282 z "},"":{"ha":1563,"x_min":0,"x_max":1565,"o":"m 1530 608 q 1553 617 1544 608 q 1563 640 1563 627 l 1563 836 q 1553 859 1563 849 q 1530 868 1544 868 l 1335 868 q 1312 859 1321 868 q 1302 836 1302 849 l 1302 803 l 1063 803 l 1063 868 l 1096 868 q 1119 878 1109 868 q 1128 901 1128 887 l 1128 1096 q 1119 1119 1128 1109 q 1096 1128 1109 1128 l 901 1128 q 878 1119 887 1128 q 868 1096 868 1109 l 868 1063 l 260 1063 l 260 1096 q 251 1119 260 1109 q 228 1128 241 1128 l 33 1128 q 9 1119 19 1128 q 0 1096 0 1109 l 0 901 q 9 878 0 887 q 33 868 19 868 l 65 868 l 65 434 l 33 434 q 9 425 19 434 q 0 401 0 415 l 0 206 q 9 183 0 193 q 33 174 19 174 l 228 174 q 251 183 241 174 q 260 206 260 193 l 260 239 l 499 239 l 499 174 l 467 174 q 444 164 453 174 q 434 141 434 155 l 434 -54 q 444 -77 434 -68 q 467 -87 453 -87 l 662 -87 q 685 -77 675 -87 q 694 -54 694 -68 l 694 -22 l 1302 -22 l 1302 -54 q 1312 -77 1302 -68 q 1335 -87 1321 -87 l 1530 -87 q 1553 -77 1544 -87 q 1563 -54 1563 -68 l 1563 141 q 1553 164 1563 155 q 1530 174 1544 174 l 1497 174 l 1497 608 l 1530 608 m 955 1042 l 1042 1042 l 1042 955 l 955 955 l 955 1042 m 955 347 l 1042 347 l 1042 260 l 955 260 l 955 347 m 174 260 l 87 260 l 87 347 l 174 347 l 174 260 m 174 955 l 87 955 l 87 1042 l 174 1042 l 174 955 m 260 369 l 260 401 q 251 425 260 415 q 228 434 241 434 l 195 434 l 195 868 l 228 868 q 251 878 241 868 q 260 901 260 887 l 260 933 l 868 933 l 868 901 q 878 878 868 887 q 901 868 887 868 l 933 868 l 933 434 l 901 434 q 878 425 887 434 q 868 401 868 415 l 868 369 l 260 369 m 608 0 l 521 0 l 521 87 l 608 87 l 608 0 m 1367 174 l 1335 174 q 1312 164 1321 174 q 1302 141 1302 155 l 1302 109 l 694 109 l 694 141 q 685 164 694 155 q 662 174 675 174 l 629 174 l 629 239 l 868 239 l 868 206 q 878 183 868 193 q 901 174 887 174 l 1096 174 q 1119 183 1109 174 q 1128 206 1128 193 l 1128 401 q 1119 425 1128 415 q 1096 434 1109 434 l 1063 434 l 1063 673 l 1302 673 l 1302 640 q 1312 617 1302 627 q 1335 608 1321 608 l 1367 608 l 1367 174 m 1476 0 l 1389 0 l 1389 87 l 1476 87 l 1476 0 m 1476 694 l 1389 694 l 1389 781 l 1476 781 l 1476 694 z "},"":{"ha":1389,"x_min":-11,"x_max":1397,"o":"m 1194 1199 l 65 548 q 5 473 19 521 q 12 380 -8 426 q 81 315 33 334 l 391 184 l 391 -43 q 434 -140 391 -103 q 533 -172 477 -176 q 627 -122 589 -168 l 743 41 l 1047 -87 q 1099 -95 1072 -95 q 1161 -79 1131 -95 q 1226 14 1215 -49 l 1386 1066 q 1366 1158 1394 1118 q 1289 1211 1337 1199 q 1194 1199 1240 1223 m 521 -43 l 521 133 l 621 92 l 521 -43 m 1099 35 l 681 206 l 1061 757 q 1066 796 1074 776 q 1036 823 1058 817 q 996 814 1015 830 l 423 312 l 130 434 l 1259 1085 l 1099 35 z "},"":{"ha":1389,"x_min":0,"x_max":1367,"o":"m 694 1194 q 358 1103 513 1194 q 113 857 203 1012 q 22 521 22 703 q 113 184 22 339 q 358 -61 203 30 q 694 -152 513 -152 q 1031 -61 876 -152 q 1276 184 1185 30 q 1367 521 1367 339 q 1276 857 1367 703 q 1031 1103 1185 1012 q 694 1194 876 1194 m 694 -22 q 423 52 548 -22 q 225 250 298 125 q 152 521 152 374 q 225 792 152 667 q 423 990 298 917 q 694 1063 548 1063 q 966 990 841 1063 q 1164 792 1090 917 q 1237 521 1237 667 q 1164 250 1237 374 q 966 52 1090 125 q 694 -22 841 -22 m 955 738 l 955 304 q 943 273 955 285 q 911 260 930 260 l 781 260 q 750 273 762 260 q 738 304 738 285 l 738 738 q 750 769 738 757 q 781 781 762 781 l 911 781 q 943 769 930 781 q 955 738 955 757 m 651 738 l 651 304 q 639 273 651 285 q 608 260 627 260 l 477 260 q 446 273 458 260 q 434 304 434 285 l 434 738 q 446 769 434 757 q 477 781 458 781 l 608 781 q 639 769 627 781 q 651 738 651 757 z "},"":{"ha":1389,"x_min":0,"x_max":1367,"o":"m 1009 570 l 532 860 q 467 860 499 879 q 434 803 434 841 l 434 239 q 467 182 434 201 q 532 182 499 163 l 1009 456 q 1042 513 1042 475 q 1009 570 1042 551 m 1367 521 q 1276 857 1367 703 q 1031 1103 1185 1012 q 694 1194 876 1194 q 358 1103 513 1194 q 113 857 203 1012 q 22 521 22 703 q 113 184 22 339 q 358 -61 203 30 q 694 -152 513 -152 q 1031 -61 876 -152 q 1276 184 1185 30 q 1367 521 1367 339 m 152 521 q 225 792 152 667 q 423 990 298 917 q 694 1063 548 1063 q 966 990 841 1063 q 1164 792 1090 917 q 1237 521 1237 667 q 1164 250 1237 374 q 966 52 1090 125 q 694 -22 841 -22 q 423 52 548 -22 q 225 250 298 125 q 152 521 152 374 z "},"":{"ha":1215,"x_min":0,"x_max":1215,"o":"m 955 564 l 955 477 q 945 454 955 464 q 922 445 936 445 l 684 445 l 684 206 q 674 183 684 193 q 651 174 665 174 l 564 174 q 541 183 551 174 q 532 206 532 193 l 532 445 l 293 445 q 270 454 279 445 q 260 477 260 464 l 260 564 q 270 587 260 578 q 293 597 279 597 l 532 597 l 532 836 q 541 859 532 849 q 564 868 551 868 l 651 868 q 674 859 665 868 q 684 836 684 849 l 684 597 l 922 597 q 945 587 936 597 q 955 564 955 578 m 1215 998 l 1215 43 q 1177 -49 1215 -11 q 1085 -87 1139 -87 l 130 -87 q 38 -49 76 -87 q 0 43 0 -11 l 0 998 q 38 1090 0 1053 q 130 1128 76 1128 l 1085 1128 q 1177 1090 1139 1128 q 1215 998 1215 1053 m 1085 60 l 1085 982 q 1080 993 1085 987 q 1069 998 1074 998 l 146 998 q 136 993 141 998 q 130 982 130 987 l 130 60 q 136 49 130 54 q 146 43 141 43 l 1069 43 q 1080 49 1074 43 q 1085 60 1085 54 z "},"":{"ha":1389,"x_min":0,"x_max":1367,"o":"m 694 1194 q 358 1103 513 1194 q 113 857 203 1012 q 22 521 22 703 q 113 184 22 339 q 358 -61 203 30 q 694 -152 513 -152 q 1031 -61 876 -152 q 1276 184 1185 30 q 1367 521 1367 339 q 1276 857 1367 703 q 1031 1103 1185 1012 q 694 1194 876 1194 m 694 -22 q 423 52 548 -22 q 225 250 298 125 q 152 521 152 374 q 225 792 152 667 q 423 990 298 917 q 694 1063 548 1063 q 966 990 841 1063 q 1164 792 1090 917 q 1237 521 1237 667 q 1164 250 1237 374 q 966 52 1090 125 q 694 -22 841 -22 m 985 670 q 941 545 985 597 q 852 480 914 515 q 808 450 819 461 q 789 418 789 437 l 789 401 q 780 378 789 388 q 757 369 770 369 l 632 369 q 609 378 618 369 q 600 401 600 388 l 600 426 q 643 532 600 488 q 724 589 667 556 l 730 591 q 787 629 770 616 q 806 673 806 648 q 772 727 806 705 q 696 749 738 749 q 624 730 654 749 q 564 667 600 713 q 544 656 556 659 q 521 662 532 654 l 445 719 q 433 741 434 727 q 437 765 431 754 q 553 875 488 838 q 711 911 618 911 q 841 879 776 911 q 945 792 906 846 q 985 670 985 738 m 808 217 q 774 137 808 171 q 694 103 741 103 q 614 137 648 103 q 581 217 581 171 q 614 297 581 263 q 694 331 648 331 q 774 297 741 331 q 808 217 808 263 z "},"":{"ha":1389,"x_min":0,"x_max":1370,"o":"m 694 1194 q 358 1103 513 1194 q 113 857 203 1012 q 22 521 22 703 q 113 184 22 339 q 358 -61 203 30 q 694 -152 513 -152 q 1031 -61 876 -152 q 1276 184 1185 30 q 1367 521 1367 339 q 1276 857 1367 703 q 1031 1103 1185 1012 q 694 1194 876 1194 m 694 -22 q 423 52 548 -22 q 225 250 298 125 q 152 521 152 374 q 225 792 152 667 q 423 990 298 917 q 694 1063 548 1063 q 966 990 841 1063 q 1164 792 1090 917 q 1237 521 1237 667 q 1164 250 1237 374 q 966 52 1090 125 q 694 -22 841 -22 m 993 201 q 917 342 960 260 l 849 461 q 928 541 898 488 q 958 659 958 594 q 890 830 958 770 q 681 890 822 890 l 467 890 q 445 880 456 890 q 434 857 434 871 l 434 184 q 445 161 434 171 q 467 152 456 152 l 572 152 q 595 161 586 152 q 605 184 605 171 l 605 412 l 692 412 l 822 168 q 849 152 830 152 l 966 152 q 994 168 985 152 q 993 201 1004 184 m 697 564 l 605 564 l 605 738 l 678 738 q 762 718 741 738 q 784 654 784 697 q 762 587 784 610 q 697 564 741 564 z "},"":{"ha":1215,"x_min":0,"x_max":1215,"o":"m 1177 863 l 949 1090 q 857 1128 911 1128 l 130 1128 q 38 1090 76 1128 q 0 998 0 1053 l 0 43 q 38 -49 0 -11 q 130 -87 76 -87 l 1085 -87 q 1177 -49 1139 -87 q 1215 43 1215 -11 l 1215 770 q 1177 863 1215 825 m 738 998 l 738 781 l 391 781 l 391 998 l 738 998 m 1069 43 l 146 43 q 136 49 141 43 q 130 60 130 54 l 130 982 q 136 993 130 987 q 146 998 141 998 l 260 998 l 260 716 q 279 670 260 689 q 326 651 298 651 l 803 651 q 849 670 830 651 q 868 716 868 689 l 868 987 l 1080 776 q 1085 765 1085 770 l 1085 60 q 1080 49 1085 54 q 1069 43 1074 43 m 608 586 q 439 515 510 586 q 369 347 369 445 q 439 179 369 250 q 608 109 510 109 q 776 179 705 109 q 846 347 846 250 q 776 515 846 445 q 608 586 705 586 m 608 239 q 530 270 562 239 q 499 347 499 301 q 530 425 499 393 q 608 456 562 456 q 685 425 654 456 q 716 347 716 393 q 685 270 716 301 q 608 239 654 239 z "},"":{"ha":1563,"x_min":0,"x_max":1565,"o":"m 1525 787 l 1134 1177 q 1040 1215 1093 1215 q 949 1179 987 1215 q 911 1085 911 1142 l 911 930 q 583 882 713 922 q 358 746 439 836 q 260 477 260 637 q 321 254 260 355 q 491 84 382 152 q 593 69 540 54 q 674 132 646 84 q 684 236 703 179 q 662 345 659 309 q 723 414 667 388 q 911 450 779 439 l 911 304 q 949 210 911 247 q 1040 174 987 174 q 1134 212 1093 174 l 1525 602 q 1563 694 1563 640 q 1525 787 1563 749 m 1042 304 l 1042 586 q 738 556 846 583 q 559 439 605 521 q 559 195 507 353 q 445 301 488 239 q 391 477 391 380 q 494 694 391 616 q 741 784 578 757 q 1042 803 852 800 l 1042 1085 l 1432 694 l 1042 304 m 1109 76 q 1166 100 1139 84 q 1199 102 1183 111 q 1215 73 1215 92 l 1215 -43 q 1177 -136 1215 -98 q 1085 -174 1139 -174 l 130 -174 q 38 -136 76 -174 q 0 -43 0 -98 l 0 911 q 38 1004 0 966 q 130 1042 76 1042 l 488 1042 q 511 1032 502 1042 q 521 1009 521 1023 l 521 998 q 499 966 521 974 q 396 917 445 944 q 380 911 388 911 l 146 911 q 136 906 141 911 q 130 895 130 901 l 130 -27 q 136 -38 130 -33 q 146 -43 141 -43 l 1069 -43 q 1080 -38 1074 -43 q 1085 -27 1085 -33 l 1085 43 q 1092 62 1085 54 q 1109 76 1099 71 z "},"":{"ha":1345,"x_min":0,"x_max":1345,"o":"m 673 1194 q 336 1103 491 1194 q 91 857 182 1012 q 0 521 0 703 q 91 184 0 339 q 336 -61 182 30 q 673 -152 491 -152 q 1009 -61 854 -152 q 1255 184 1164 30 q 1345 521 1345 339 q 1255 857 1345 703 q 1009 1103 1164 1012 q 673 1194 854 1194 m 673 -22 q 401 52 526 -22 q 203 250 277 125 q 130 521 130 374 q 203 792 130 667 q 401 990 277 917 q 673 1063 526 1063 q 944 990 819 1063 q 1142 792 1069 917 q 1215 521 1215 667 q 1142 250 1215 374 q 944 52 1069 125 q 673 -22 819 -22 m 901 366 q 798 289 857 317 q 673 260 738 260 q 548 289 608 260 q 445 366 488 317 q 401 391 429 388 q 354 376 374 393 q 331 331 334 358 q 345 285 328 304 q 492 171 407 212 q 673 130 578 130 q 853 171 768 130 q 1001 285 939 212 q 1015 331 1017 304 q 991 376 1012 358 q 944 391 971 393 q 901 366 917 388 m 456 564 q 517 590 491 564 q 543 651 543 616 q 517 712 543 686 q 456 738 491 738 q 395 712 420 738 q 369 651 369 686 q 395 590 369 616 q 456 564 420 564 m 890 564 q 951 590 925 564 q 977 651 977 616 q 951 712 977 686 q 890 738 925 738 q 829 712 854 738 q 803 651 803 686 q 829 590 803 616 q 890 564 854 564 z "},"":{"ha":1215,"x_min":-5,"x_max":1221,"o":"m 1188 250 l 1009 355 l 1169 382 q 1206 408 1194 388 q 1214 450 1218 429 q 1191 484 1210 472 q 1147 491 1172 496 l 917 407 l 694 521 l 917 635 l 1147 551 q 1191 557 1172 545 q 1214 593 1210 570 q 1204 635 1218 616 q 1169 659 1191 654 l 1009 686 l 1188 792 q 1213 826 1207 803 q 1207 868 1218 849 q 1175 894 1196 887 q 1131 890 1153 901 l 952 787 l 1009 939 q 1004 982 1015 960 q 971 1010 993 1004 q 930 1008 949 1017 q 903 977 911 998 l 860 732 l 665 618 l 665 846 l 852 1006 q 867 1044 868 1023 q 848 1081 865 1066 q 807 1096 830 1096 q 768 1077 784 1096 l 665 952 l 665 1161 q 648 1199 665 1183 q 608 1215 632 1215 q 567 1199 583 1215 q 551 1161 551 1183 l 551 952 l 448 1077 q 408 1096 431 1096 q 368 1081 385 1096 q 349 1044 350 1066 q 363 1006 347 1023 l 551 846 l 551 618 l 355 732 l 312 977 q 285 1008 304 998 q 244 1010 266 1017 q 212 982 222 1004 q 206 939 201 960 l 263 787 l 84 890 q 41 894 62 901 q 8 868 19 887 q 3 826 -3 849 q 27 792 8 803 l 206 686 l 46 659 q 11 635 24 654 q 1 593 -3 616 q 24 557 5 570 q 68 551 43 545 l 298 635 l 521 521 l 298 407 l 68 491 q 24 484 43 496 q 1 449 5 472 q 11 407 -3 426 q 46 382 24 388 l 206 355 l 27 250 q 3 216 8 239 q 8 174 -3 193 q 41 148 19 155 q 84 152 62 141 l 263 255 l 206 103 q 212 58 201 79 q 244 31 222 38 q 285 34 266 24 q 312 65 304 43 l 355 309 l 551 423 l 551 195 l 363 35 q 349 -3 347 19 q 368 -39 350 -24 q 408 -54 385 -54 q 448 -35 431 -54 l 551 90 l 551 -119 q 567 -157 551 -141 q 608 -174 583 -174 q 648 -157 632 -174 q 665 -119 665 -141 l 665 90 l 768 -35 q 810 -54 787 -54 q 849 -39 833 -54 q 867 -3 865 -24 q 852 35 868 19 l 665 195 l 665 423 l 860 309 l 903 65 q 930 34 911 43 q 971 31 949 24 q 1004 60 993 38 q 1009 103 1015 81 l 952 255 l 1131 152 q 1175 148 1153 141 q 1207 174 1196 155 q 1213 216 1218 193 q 1188 250 1207 239 z "},"":{"ha":1215,"x_min":0,"x_max":1215,"o":"m 1085 1128 l 130 1128 q 38 1090 76 1128 q 0 998 0 1053 l 0 43 q 38 -49 0 -11 q 130 -87 76 -87 l 1085 -87 q 1177 -49 1139 -87 q 1215 43 1215 -11 l 1215 998 q 1177 1090 1215 1053 q 1085 1128 1139 1128 m 1069 43 l 146 43 q 136 49 141 43 q 130 60 130 54 l 130 982 q 136 993 130 987 q 146 998 141 998 l 1069 998 q 1080 993 1074 998 q 1085 982 1085 987 l 1085 60 q 1080 49 1085 54 q 1069 43 1074 43 z "},"":{"ha":1563,"x_min":0,"x_max":781,"o":"m 781 171 l 445 -8 l 507 369 l 236 635 l 613 689 l 781 1031 l 781 1215 q 736 1203 757 1215 q 703 1166 716 1191 l 526 808 l 130 751 q 75 719 95 746 q 56 659 54 692 q 81 602 57 627 l 369 323 l 301 -71 q 313 -133 296 -106 q 363 -170 331 -160 q 426 -163 396 -179 l 781 22 l 781 171 z "},"":{"ha":1563,"x_min":0,"x_max":1508,"o":"m 1432 751 l 1036 808 l 860 1166 q 812 1210 844 1199 q 750 1210 781 1221 q 703 1166 719 1199 l 526 808 l 130 751 q 75 719 95 746 q 56 659 54 692 q 81 602 57 627 l 369 323 l 301 -73 q 313 -134 296 -106 q 363 -171 331 -163 q 426 -163 396 -179 l 781 22 l 1137 -163 q 1199 -171 1166 -179 q 1249 -134 1232 -163 q 1261 -73 1267 -106 l 1194 323 l 1481 602 q 1507 659 1506 627 q 1488 719 1508 692 q 1432 751 1468 746 m 1055 369 l 1118 -8 l 781 171 l 445 -8 l 507 369 l 236 635 l 613 689 l 781 1031 l 949 689 l 1326 635 l 1055 369 z "},"":{"ha":1215,"x_min":0,"x_max":1218,"o":"m 1215 271 l 1215 998 q 1177 1090 1215 1053 q 1085 1128 1139 1128 l 130 1128 q 38 1090 76 1128 q 0 998 0 1053 l 0 43 q 38 -49 0 -11 q 130 -87 76 -87 l 857 -87 q 949 -49 911 -87 l 1177 179 q 1215 271 1215 217 m 868 54 l 868 260 l 1074 260 l 868 54 m 1085 998 l 1085 391 l 803 391 q 757 372 776 391 q 738 326 738 353 l 738 43 l 130 43 l 130 998 l 1085 998 z "},"":{"ha":1389,"x_min":0,"x_max":1367,"o":"m 1367 521 q 1276 857 1367 703 q 1031 1103 1185 1012 q 694 1194 876 1194 q 358 1103 513 1194 q 113 857 203 1012 q 22 521 22 703 q 113 184 22 339 q 358 -61 203 30 q 694 -152 513 -152 q 1031 -61 876 -152 q 1276 184 1185 30 q 1367 521 1367 339 m 152 521 q 225 792 152 667 q 423 990 298 917 q 694 1063 548 1063 q 966 990 841 1063 q 1164 792 1090 917 q 1237 521 1237 667 q 1164 250 1237 374 q 966 52 1090 125 q 694 -22 841 -22 q 423 52 548 -22 q 225 250 298 125 q 152 521 152 374 m 955 738 l 955 304 q 943 273 955 285 q 911 260 930 260 l 477 260 q 446 273 458 260 q 434 304 434 285 l 434 738 q 446 769 434 757 q 477 781 458 781 l 911 781 q 943 769 930 781 q 955 738 955 757 z "},"":{"ha":1389,"x_min":0,"x_max":1364,"o":"m 597 -109 l 543 24 q 536 31 540 30 q 526 30 532 33 l 404 -46 q 323 -58 363 -71 q 259 -11 282 -46 q 247 68 236 24 l 279 209 q 279 218 282 214 q 271 222 277 222 l 125 233 q 54 270 81 236 q 30 347 27 304 q 65 418 33 391 l 176 513 q 179 521 179 515 q 176 529 179 526 l 65 624 q 30 694 33 651 q 54 772 27 738 q 125 808 81 806 l 271 819 q 279 823 277 819 q 279 833 282 827 l 247 974 q 259 1053 236 1017 q 323 1100 282 1088 q 404 1088 363 1112 l 526 1012 q 536 1010 532 1009 q 543 1017 540 1012 l 597 1150 q 654 1207 613 1191 q 735 1207 694 1223 q 792 1150 776 1191 l 846 1017 q 853 1010 849 1012 q 863 1012 857 1009 l 985 1088 q 1066 1100 1025 1112 q 1130 1053 1107 1088 q 1142 974 1153 1017 l 1109 833 q 1109 823 1107 827 q 1118 819 1112 819 l 1261 808 q 1335 772 1308 806 q 1359 694 1362 738 q 1324 624 1356 651 l 1213 529 q 1207 521 1207 526 q 1213 513 1207 515 l 1324 418 q 1359 347 1356 391 q 1335 270 1362 304 q 1261 233 1308 236 l 1118 222 q 1109 218 1112 222 q 1109 209 1107 214 l 1142 68 q 1130 -11 1153 24 q 1066 -58 1107 -46 q 985 -46 1025 -71 l 863 30 q 853 31 857 33 q 846 24 849 30 l 792 -109 q 735 -165 776 -149 q 654 -165 694 -182 q 597 -109 613 -149 m 643 68 l 694 -60 l 746 68 q 821 136 768 119 q 920 122 873 152 l 1036 52 l 1004 184 q 1023 283 990 239 q 1109 331 1055 328 l 1248 342 l 1142 429 q 1099 521 1099 467 q 1142 613 1099 575 l 1248 700 l 1109 711 q 1023 758 1055 713 q 1004 857 990 803 l 1036 990 l 920 920 q 821 907 873 890 q 746 974 768 925 l 694 1101 l 643 974 q 568 906 621 922 q 469 920 515 890 l 353 990 l 385 857 q 366 758 399 803 q 279 711 334 713 l 141 700 l 247 613 q 289 521 290 575 q 247 429 288 467 l 141 342 l 279 331 q 366 283 334 328 q 385 184 399 239 l 353 52 l 469 122 q 568 134 515 152 q 643 68 621 117 m 694 174 q 519 220 600 174 q 393 346 439 266 q 347 521 347 426 q 393 696 347 616 q 519 822 439 776 q 694 868 600 868 q 869 822 789 868 q 996 696 949 776 q 1042 521 1042 616 q 996 346 1042 426 q 869 220 949 266 q 694 174 789 174 m 694 738 q 541 674 605 738 q 477 521 477 610 q 541 368 477 431 q 694 304 605 304 q 848 368 784 304 q 911 521 911 431 q 848 674 911 610 q 694 738 784 738 z "},"":{"ha":1389,"x_min":-3,"x_max":1302,"o":"m 1264 605 q 1240 776 1283 694 q 1233 871 1245 822 q 1194 958 1221 920 q 1118 1142 1191 1077 q 887 1215 1039 1215 l 827 1215 q 616 1191 713 1215 q 477 1142 562 1177 q 410 1118 431 1123 q 347 1107 377 1107 l 317 1107 q 260 1128 293 1128 l 87 1128 q 26 1103 52 1128 q 0 1042 0 1077 l 0 391 q 26 330 0 355 q 87 304 52 304 l 260 304 q 304 316 285 304 q 336 347 323 328 l 355 347 q 448 237 382 323 q 543 122 513 152 q 567 43 553 111 q 616 -98 591 -54 q 735 -174 659 -174 q 925 -106 857 -174 q 996 111 996 -33 q 971 236 996 174 l 1069 236 q 1234 307 1166 236 q 1302 469 1302 377 q 1264 605 1302 540 m 174 412 q 127 431 146 412 q 109 477 109 450 q 127 524 109 505 q 174 543 146 543 q 220 524 201 543 q 239 477 239 505 q 220 431 239 450 q 174 412 201 412 m 1069 366 l 787 366 q 800 298 787 334 q 825 241 806 279 q 852 182 844 203 q 865 111 865 146 q 849 8 865 41 q 735 -43 819 -43 q 711 3 722 -27 q 697 60 705 19 q 678 141 686 114 q 632 214 662 184 q 553 312 610 236 q 464 423 494 393 q 377 477 412 477 l 347 477 l 347 982 q 448 996 393 982 q 545 1028 480 1004 q 670 1066 627 1055 q 814 1085 743 1085 l 914 1085 q 1031 1044 993 1085 q 1061 906 1074 1001 q 1107 840 1093 887 q 1099 751 1120 792 q 1141 658 1139 711 q 1112 572 1142 605 q 1152 540 1131 572 q 1172 469 1172 507 q 1142 399 1172 431 q 1069 366 1112 366 z "},"":{"ha":1389,"x_min":-3,"x_max":1302,"o":"m 1264 437 q 1302 572 1302 502 q 1234 735 1302 665 q 1069 806 1166 806 l 971 806 q 996 930 996 868 q 925 1147 996 1074 q 735 1215 857 1215 q 616 1139 659 1215 q 567 998 591 1096 q 543 920 553 930 q 448 804 513 890 q 355 694 382 719 l 87 694 q 26 669 52 694 q 0 608 0 643 l 0 -43 q 26 -104 0 -79 q 87 -130 52 -130 l 260 -130 q 313 -111 290 -130 q 345 -65 336 -92 q 412 -76 377 -65 q 483 -103 434 -84 q 618 -149 564 -136 q 827 -174 713 -174 l 887 -174 q 1118 -100 1039 -174 q 1194 84 1191 -35 q 1233 171 1221 122 q 1240 266 1245 220 q 1264 437 1283 347 m 1099 290 q 1107 202 1120 250 q 1061 136 1093 155 q 1031 -3 1074 41 q 914 -43 993 -43 l 814 -43 q 670 -24 743 -43 q 545 14 627 -14 q 448 46 480 38 q 347 60 393 60 l 347 564 l 377 564 q 464 618 412 564 q 553 730 494 648 q 632 827 610 806 q 678 901 662 857 q 697 982 686 928 q 711 1039 705 1023 q 735 1085 722 1069 q 849 1034 819 1085 q 865 930 865 1001 q 852 860 865 895 q 825 800 844 838 q 800 743 806 762 q 787 675 787 708 l 1069 675 q 1142 643 1112 675 q 1172 572 1172 610 q 1152 502 1172 534 q 1112 469 1131 469 q 1141 384 1142 437 q 1099 290 1139 331 m 239 43 q 220 -3 239 16 q 174 -22 201 -22 q 127 -3 146 -22 q 109 43 109 16 q 127 90 109 71 q 174 109 146 109 q 220 90 201 109 q 239 43 239 71 z "},"":{"ha":1389,"x_min":0,"x_max":1367,"o":"m 694 1194 q 358 1103 513 1194 q 113 857 203 1012 q 22 521 22 703 q 113 184 22 339 q 358 -61 203 30 q 694 -152 513 -152 q 1031 -61 876 -152 q 1276 184 1185 30 q 1367 521 1367 339 q 1276 857 1367 703 q 1031 1103 1185 1012 q 694 1194 876 1194 m 694 -22 q 423 52 548 -22 q 225 250 298 125 q 152 521 152 374 q 225 792 152 667 q 423 990 298 917 q 694 1063 548 1063 q 966 990 841 1063 q 1164 792 1090 917 q 1237 521 1237 667 q 1164 250 1237 374 q 966 52 1090 125 q 694 -22 841 -22 m 971 689 l 803 521 l 971 353 q 979 328 979 342 q 971 307 979 315 l 909 244 q 887 236 901 236 q 863 244 873 236 l 694 412 l 526 244 q 502 236 515 236 q 480 244 488 236 l 418 307 q 410 328 410 315 q 418 353 410 342 l 586 521 l 418 689 q 410 713 410 700 q 418 735 410 727 l 480 798 q 502 806 488 806 q 526 798 515 806 l 694 629 l 863 798 q 887 806 873 806 q 909 798 901 806 l 971 735 q 979 713 979 727 q 971 689 979 700 z "},"":{"ha":1215,"x_min":0,"x_max":1218,"o":"m 521 705 l 521 119 q 511 96 521 106 q 488 87 502 87 l 423 87 q 400 96 410 87 q 391 119 391 106 l 391 705 q 400 728 391 719 q 423 738 410 738 l 488 738 q 511 728 502 738 q 521 705 521 719 m 792 738 l 727 738 q 704 728 713 738 q 694 705 694 719 l 694 119 q 704 96 694 106 q 727 87 713 87 l 792 87 q 815 96 806 87 q 825 119 825 106 l 825 705 q 815 728 825 719 q 792 738 806 738 m 1150 998 q 1196 979 1177 998 q 1215 933 1215 960 l 1215 901 q 1206 878 1215 887 q 1183 868 1196 868 l 1128 868 l 1128 -43 q 1090 -136 1128 -98 q 998 -174 1053 -174 l 217 -174 q 125 -136 163 -174 q 87 -43 87 -98 l 87 868 l 33 868 q 9 878 19 868 q 0 901 0 887 l 0 933 q 19 979 0 960 q 65 998 38 998 l 266 998 l 358 1153 q 407 1199 377 1183 q 472 1215 437 1215 l 743 1215 q 808 1199 779 1215 q 857 1153 838 1183 l 949 998 l 1150 998 m 418 998 l 798 998 l 749 1077 q 735 1085 743 1085 l 480 1085 q 467 1077 472 1085 l 418 998 m 998 868 l 217 868 l 217 -27 q 222 -38 217 -33 q 233 -43 228 -43 l 982 -43 q 993 -38 987 -43 q 998 -27 998 -33 l 998 868 z "},"":{"ha":1389,"x_min":0,"x_max":1370,"o":"m 694 1194 q 358 1103 513 1194 q 113 857 203 1012 q 22 521 22 703 q 113 184 22 339 q 358 -61 203 30 q 694 -152 513 -152 q 1031 -61 876 -152 q 1276 184 1185 30 q 1367 521 1367 339 q 1276 857 1367 703 q 1031 1103 1185 1012 q 694 1194 876 1194 m 694 1063 q 966 990 841 1063 q 1164 792 1090 917 q 1237 519 1237 667 q 1161 247 1237 372 q 1107 350 1145 307 q 990 423 1061 401 q 1042 608 1042 507 q 996 783 1042 703 q 869 909 949 863 q 694 955 789 955 q 519 909 600 955 q 393 783 439 863 q 347 605 347 703 q 399 423 347 507 q 282 350 328 401 q 228 247 244 307 q 152 519 152 372 q 225 792 152 667 q 423 990 298 917 q 694 1063 548 1063 m 911 608 q 848 454 911 518 q 694 391 784 391 q 541 454 605 391 q 477 608 477 518 q 541 761 477 697 q 694 825 605 825 q 848 761 784 825 q 911 608 911 697 m 347 103 l 347 179 q 372 254 347 220 q 437 298 396 288 l 505 317 q 694 260 589 260 q 884 317 800 260 l 952 298 q 1017 254 993 288 q 1042 179 1042 220 l 1042 103 q 880 11 968 43 q 694 -22 792 -22 q 509 11 597 -22 q 347 103 420 43 z "},"":{"ha":1389,"x_min":-3,"x_max":1392,"o":"m 1147 426 l 1090 442 q 1183 727 1183 570 q 1118 972 1183 860 q 940 1150 1053 1085 q 694 1215 827 1215 q 449 1150 562 1215 q 271 972 336 1085 q 206 727 206 860 q 298 442 206 570 l 241 426 q 52 285 117 391 q 0 106 0 201 l 0 38 q 62 -111 0 -49 q 212 -174 125 -174 l 1177 -174 q 1326 -111 1264 -174 q 1389 38 1389 -49 l 1389 106 q 1337 282 1389 201 q 1147 426 1272 391 m 694 1085 q 873 1036 792 1085 q 1004 906 955 987 q 1053 727 1053 825 q 1004 548 1053 629 q 873 418 955 467 q 694 369 792 369 q 515 418 597 369 q 385 548 434 467 q 336 727 336 629 q 385 906 336 825 q 515 1036 434 987 q 694 1085 597 1085 m 1259 38 q 1236 -20 1259 3 q 1177 -43 1213 -43 l 212 -43 q 153 -20 176 -43 q 130 38 130 3 l 130 106 q 171 228 130 174 q 277 301 212 282 l 401 336 q 694 239 532 239 q 987 336 857 239 l 1112 301 q 1218 228 1177 282 q 1259 106 1259 174 l 1259 38 z "},"":{"ha":1389,"x_min":0,"x_max":1389,"o":"m 1259 1128 l 130 1128 q 38 1090 76 1128 q 0 998 0 1053 l 0 43 q 38 -49 0 -11 q 130 -87 76 -87 l 1259 -87 q 1351 -49 1313 -87 q 1389 43 1389 -11 l 1389 998 q 1351 1090 1389 1053 q 1259 1128 1313 1128 m 1259 60 q 1253 49 1259 54 q 1242 43 1248 43 l 146 43 q 136 49 141 43 q 130 60 130 54 l 130 982 q 136 993 130 987 q 146 998 141 998 l 1242 998 q 1253 993 1248 998 q 1259 982 1259 987 l 1259 60 m 968 686 l 800 521 l 968 355 q 977 331 977 345 q 966 309 977 317 l 906 250 q 884 239 898 239 q 860 247 871 239 l 694 415 l 529 250 q 505 239 518 239 q 483 247 491 239 l 423 309 q 412 331 412 317 q 420 355 412 345 l 589 521 l 423 686 q 412 711 412 697 q 420 732 412 724 l 483 795 q 505 803 491 803 q 529 795 518 803 l 694 627 l 860 795 q 884 803 871 803 q 906 795 898 803 l 968 732 q 977 711 977 724 q 968 686 977 697 z "},"":{"ha":1389,"x_min":0,"x_max":1389,"o":"m 1259 1128 l 130 1128 q 38 1090 76 1128 q 0 998 0 1053 l 0 43 q 38 -49 0 -11 q 130 -87 76 -87 l 1259 -87 q 1351 -49 1313 -87 q 1389 43 1389 -11 l 1389 998 q 1351 1090 1389 1053 q 1259 1128 1313 1128 m 1259 60 q 1253 49 1259 54 q 1242 43 1248 43 l 146 43 q 136 49 141 43 q 130 60 130 54 l 130 694 l 1259 694 l 1259 60 z "},"":{"ha":1389,"x_min":0,"x_max":1392,"o":"m 1302 -87 l 87 -87 q 26 -61 52 -87 q 0 0 0 -35 q 26 61 0 35 q 87 87 52 87 l 1302 87 q 1363 61 1337 87 q 1389 0 1389 35 q 1363 -61 1389 -35 q 1302 -87 1337 -87 z "},"":{"ha":1389,"x_min":0,"x_max":1389,"o":"m 1259 1215 l 391 1215 q 298 1177 336 1215 q 260 1085 260 1139 l 260 955 l 130 955 q 38 917 76 955 q 0 825 0 879 l 0 -43 q 38 -136 0 -98 q 130 -174 76 -174 l 998 -174 q 1090 -136 1053 -174 q 1128 -43 1128 -98 l 1128 87 l 1259 87 q 1351 125 1313 87 q 1389 217 1389 163 l 1389 1085 q 1351 1177 1389 1139 q 1259 1215 1313 1215 m 998 -43 l 130 -43 l 130 521 l 998 521 l 998 -43 m 1259 217 l 1128 217 l 1128 825 q 1090 917 1128 879 q 998 955 1053 955 l 391 955 l 391 1085 l 1259 1085 l 1259 217 z "}}}
